<svg xmlns="http://www.w3.org/2000/svg" viewBox="0 0 48 48"><title>28-alcohol</title><g id="_28-alcohol" data-name="28-alcohol"><path d="M44,20v3a8,8,0,0,1-16,0V20c3.43,0,3.76,1,8,1S40.57,20,44,20Z" style="fill:#d72878"/><path d="M44,11v9c-3.43,0-3.76,1-8,1s-4.57-1-8-1V11Z" style="fill:#dce1eb"/><path d="M37,43.878V30.931a7.281,7.281,0,0,1-2,0V43.878A33.778,33.778,0,0,1,30,47H42A33.778,33.778,0,0,1,37,43.878Z" style="fill:#cdd2e1"/><path d="M37,32.931v-2a7.281,7.281,0,0,1-2,0v2a7.281,7.281,0,0,0,2,0Z" style="fill:#707789"/><path d="M31.644,20.487c1.775,5.227,4.827,8.854,8.375,9.423A7.986,7.986,0,0,0,44,23V20c-3.43,0-3.76,1-8,1A16.313,16.313,0,0,1,31.644,20.487Z" style="fill:#ff468c"/><path d="M30.028,11a32.462,32.462,0,0,0,1.616,9.487A16.313,16.313,0,0,0,36,21c4.24,0,4.57-1,8-1V11Z" style="fill:#f2f5f9"/><polygon points="18 7 17.6 11 10.4 11 10 7 18 7" style="fill:#4e535e"/><polygon points="17.6 11 17.2 15.02 17 15 11 15 10.8 15.02 10.4 11 17.6 11" style="fill:#636978"/><polygon points="18 7 10 7 10.1 8 17.9 8 18 7" style="fill:#4e535e"/><polygon points="10.4 11 10.5 12 17.5 12 17.6 11 10.4 11" style="fill:#4e535e"/><path d="M12.179,11H17.6l.3-3H11.179A10.41,10.41,0,0,0,12.179,11Z" style="fill:#636978"/><path d="M12.791,12a6.638,6.638,0,0,0,4.417,2.939L17.5,12Z" style="fill:#707789"/><path d="M17.9,8,18,7H11.046c.029.34.075.673.133,1Z" style="fill:#4e535e"/><path d="M12.791,12H17.5l.1-1H12.179A9.074,9.074,0,0,0,12.791,12Z" style="fill:#4e535e"/><path d="M24,23V47H4V23ZM19,36V32A5,5,0,0,0,9,32v4a5,5,0,0,0,10,0Z" style="fill:#b674f2"/><path d="M19,32v4A5,5,0,0,1,9,36V32a5,5,0,1,1,10,0Z" style="fill:#dce1eb"/><path d="M18.248,27.669A6.18,6.18,0,0,0,14,26a5.864,5.864,0,0,0-6,5.714v4.572A5.864,5.864,0,0,0,14,42a5.864,5.864,0,0,0,6-5.714V31.714A5.6,5.6,0,0,0,18.248,27.669ZM19,36A5,5,0,0,1,9,36V32a5,5,0,1,1,10,0Z" style="fill:#8f4cd6"/><rect x="4" y="45" width="20" height="2" style="fill:#8f4cd6"/><path d="M24,22.02V23H4v-.98a4,4,0,0,1,2.9-3.85l2.49-.71a2,2,0,0,0,1.44-2.12l-.03-.32L11,15h6l.2.02-.03.32a2,2,0,0,0,1.44,2.12l2.49.71A4,4,0,0,1,24,22.02Z" style="fill:#dce1eb"/><path d="M17.17,15.34l.03-.32L17,15H11l-.2.02.03.32A1.976,1.976,0,0,1,10.193,17h7.614A1.976,1.976,0,0,1,17.17,15.34Z" style="fill:#cdd2e1"/><polygon points="20 1 20 7 18 7 10 7 8 7 8 1 20 1" style="fill:#b674f2"/><rect x="8" y="5" width="12" height="2" style="fill:#8f4cd6"/><rect x="8" y="1" width="12" height="1" style="fill:#8f4cd6"/><path d="M11.4,5H20V2H9.335A6.889,6.889,0,0,0,11.4,5Z" style="fill:#d2a0f5"/><path d="M17,7h3V5H11.4A8.588,8.588,0,0,0,17,7Z" style="fill:#b674f2"/><path d="M9.091,1a6.263,6.263,0,0,0,.244,1H20V1Z" style="fill:#b674f2"/><path d="M8.948,28.641A6.069,6.069,0,0,1,14,26a6.18,6.18,0,0,1,4.248,1.669A5.6,5.6,0,0,1,20,31.714v4.572A5.573,5.573,0,0,1,18.041,40.5,33.011,33.011,0,0,0,24,44.4V23H6.98A32.678,32.678,0,0,0,8.948,28.641Z" style="fill:#d2a0f5"/><path d="M17.222,39.793A4.965,4.965,0,0,0,19,36V32a4.988,4.988,0,0,0-9.484-2.171A33.063,33.063,0,0,0,17.222,39.793Z" style="fill:#f2f5f9"/><path d="M20,36.286V31.714a5.6,5.6,0,0,0-1.752-4.045A6.18,6.18,0,0,0,14,26a6.069,6.069,0,0,0-5.052,2.641c.182.4.37.8.568,1.188A4.987,4.987,0,0,1,19,32v4a4.965,4.965,0,0,1-1.778,3.793c.271.238.541.477.819.706A5.573,5.573,0,0,0,20,36.286Z" style="fill:#b674f2"/><path d="M24,23v-.98a4,4,0,0,0-2.9-3.85l-2.49-.71a2.005,2.005,0,0,1-.8-.46H10.193a2.005,2.005,0,0,1-.8.46l-2.49.71a3.906,3.906,0,0,0-.719.291A32.942,32.942,0,0,0,6.98,23Z" style="fill:#f2f5f9"/><ellipse cx="40.003" cy="14.987" rx="1.642" ry="2.286" transform="translate(1.125 32.689) rotate(-45.02)" style="fill:#f6fafd"/><ellipse cx="16.003" cy="29.987" rx="1.642" ry="2.286" transform="translate(-16.52 20.11) rotate(-45.02)" style="fill:#f6fafd"/><ellipse cx="20" cy="25" rx="0.825" ry="1.148" transform="translate(-11.821 21.475) rotate(-45.02)" style="fill:#f6fafd"/><ellipse cx="41" cy="19" rx="0.825" ry="1.148" transform="translate(-1.421 34.571) rotate(-45.02)" style="fill:#f6fafd"/><ellipse cx="20.746" cy="27.5" rx="0.413" ry="0.574" transform="translate(-13.371 22.736) rotate(-45.02)" style="fill:#f6fafd"/><circle cx="40.5" cy="23.5" r="0.5" style="fill:#d72878"/><circle cx="37.5" cy="22.5" r="0.5" style="fill:#d72878"/><circle cx="37.5" cy="26.5" r="0.5" style="fill:#d72878"/><circle cx="36.5" cy="23.5" r="0.5" style="fill:#d72878"/><circle cx="42.5" cy="21.5" r="0.5" style="fill:#d72878"/><circle cx="40" cy="26" r="1" style="fill:#d72878"/><circle cx="35" cy="23" r="1" style="fill:#d72878"/><path d="M21.373,17.209,18.881,16.5a1,1,0,0,1-.72-1.06L18.905,8H20a1,1,0,0,0,1-1V1a1,1,0,0,0-1-1H8A1,1,0,0,0,7,1V7A1,1,0,0,0,8,8H9.1l.744,7.436A1,1,0,0,1,9.118,16.5l-2.492.712A5.023,5.023,0,0,0,3,22.018V26H5V24H19V22H5a3.012,3.012,0,0,1,2.175-2.867l2.491-.712A2.991,2.991,0,0,0,11.8,16H16.2a2.992,2.992,0,0,0,2.129,2.421l2.491.712A3.011,3.011,0,0,1,23,22H21v2h2V46H5V32H3V47a1,1,0,0,0,1,1H24a1,1,0,0,0,1-1V22.018A5.023,5.023,0,0,0,21.373,17.209ZM10,6H9V2H19V6H16V8H16.9l-.2,2h-5.39l-.2-2H14V6Zm1.705,8-.2-2H16.5l-.2,2Z"/><rect x="3" y="28" width="2" height="2"/><path d="M20,36V32A6,6,0,0,0,8,32v4a6,6,0,0,0,12,0ZM10,36V32a4,4,0,0,1,8,0v4a4,4,0,0,1-8,0Z"/><path d="M45,14V11a1,1,0,0,0-1-1H28a1,1,0,0,0-1,1V23a9.01,9.01,0,0,0,8,8.941V42.569a29.735,29.735,0,0,1-5.447,3.536A1,1,0,0,0,30,48H42a1,1,0,0,0,.447-1.9A29.654,29.654,0,0,1,37,42.569V31.941A9.01,9.01,0,0,0,45,23V16H43v3.03a13.153,13.153,0,0,0-2.223.33l.446,1.95A11.49,11.49,0,0,1,43,21.038V23a7,7,0,0,1-14,0V21.034a12.846,12.846,0,0,1,2.3.4A17.545,17.545,0,0,0,36,22a18.529,18.529,0,0,0,3.168-.239l-.336-1.971A16.565,16.565,0,0,1,36,20a15.564,15.564,0,0,1-4.235-.512A14.681,14.681,0,0,0,29,19.032V12H43v2ZM33.742,46A22.075,22.075,0,0,0,36,44.354,22.075,22.075,0,0,0,38.258,46Z"/></g></svg>