<?xml version="1.0" encoding="iso-8859-1"?>
<!-- Generator: Adobe Illustrator 19.0.0, SVG Export Plug-In . SVG Version: 6.00 Build 0)  -->
<svg xmlns="http://www.w3.org/2000/svg" xmlns:xlink="http://www.w3.org/1999/xlink" version="1.1" id="Layer_1" x="0px" y="0px" viewBox="0 0 512 512" style="enable-background:new 0 0 512 512;" xml:space="preserve">
<g>
	<rect x="144.423" y="30.583" style="fill:#594333;" width="223.156" height="79.155"/>
	<rect x="144.423" y="409.01" style="fill:#594333;" width="223.156" height="42.399"/>
</g>
<rect x="144.423" y="30.583" style="opacity:0.1;enable-background:new    ;" width="52.086" height="79.155"/>
<rect x="144.423" y="409.01" style="opacity:0.1;enable-background:new    ;" width="52.086" height="42.399"/>
<rect x="123.286" y="7.737" style="fill:#735642;" width="42.268" height="496.521"/>
<rect x="315.494" y="30.583" style="opacity:0.1;enable-background:new    ;" width="52.086" height="79.155"/>
<rect x="315.494" y="409.01" style="opacity:0.1;enable-background:new    ;" width="52.086" height="42.399"/>
<rect x="346.442" y="7.737" style="fill:#735642;" width="42.268" height="496.521"/>
<path style="fill:#FF6B58;" d="M335.795,251.52H176.203c-17.554,0-31.785,14.23-31.785,31.785v23.687h223.16v-23.687  C367.579,265.75,353.349,251.52,335.795,251.52z"/>
<rect x="123.286" y="330.68" style="opacity:0.1;enable-background:new    ;" width="42.268" height="30.948"/>
<rect x="346.442" y="330.68" style="opacity:0.1;enable-background:new    ;" width="42.268" height="30.948"/>
<path style="fill:#8C6950;" d="M394.098,330.678H117.9c-13.082,0-23.687-10.605-23.687-23.687l0,0  c0-13.082,10.605-23.687,23.687-23.687h276.198c13.082,0,23.687,10.605,23.687,23.687l0,0  C417.785,320.073,407.18,330.678,394.098,330.678z"/>
<path d="M165.553,0h-42.267c-4.274,0-7.737,3.464-7.737,7.737v267.928c-16.232,1.208-29.073,14.791-29.073,31.327  c0,16.535,12.84,30.119,29.073,31.327v165.945c0,4.273,3.463,7.737,7.737,7.737h42.268c4.274,0,7.737-3.464,7.737-7.737v-45.118  h165.42v45.118c0,4.273,3.463,7.737,7.737,7.737h42.268c4.274,0,7.737-3.464,7.737-7.737v-45.991c0-4.273-3.463-7.737-7.737-7.737  c-4.274,0-7.737,3.464-7.737,7.737v38.254h-26.794v-45.118v-42.4v-70.592h26.794v88.909c0,4.273,3.463,7.737,7.737,7.737  c4.274,0,7.737-3.464,7.737-7.737v-89.006c16.231-1.208,29.072-14.791,29.072-31.327c0-16.535-12.84-30.118-29.072-31.327V7.737  c0-4.273-3.463-7.737-7.737-7.737h-42.268c-4.274,0-7.737,3.464-7.737,7.737v15.109H236.907c-4.274,0-7.737,3.464-7.737,7.737  s3.463,7.737,7.737,7.737H338.71v63.684H173.29V38.32h32.668c4.274,0,7.737-3.464,7.737-7.737s-3.463-7.737-7.737-7.737H173.29  V7.737C173.29,3.464,169.827,0,165.553,0z M131.023,15.474h26.794v15.109v79.158c0,0,0,138.573,0,138.579  c-0.001,0.088-0.707,0.398-0.778,0.437c-9.983,5.584-17.339,15.51-19.591,26.81h-6.425  C131.023,275.568,131.023,15.474,131.023,15.474z M157.816,409.008v42.4v45.118h-26.793V338.415h26.794v70.593H157.816z   M338.709,443.671H173.29v-26.926h165.42L338.709,443.671L338.709,443.671z M338.709,401.271H173.29v-62.855h165.42L338.709,401.271  L338.709,401.271z M394.098,291.041c8.794,0,15.95,7.155,15.95,15.95s-7.155,15.95-15.95,15.95H117.901  c-8.794,0-15.951-7.155-15.951-15.951c0-8.794,7.156-15.95,15.951-15.95h276.197V291.041z M354.183,109.741V30.583V15.474h26.794  v260.093h-6.425c-1.235-6.194-3.995-12.038-7.944-16.961c-3.191-3.978-7.152-7.416-11.647-9.85c-0.26-0.144-0.515-0.3-0.778-0.437  V109.741z M338.709,117.478v126.424c-0.964-0.07-1.932-0.119-2.913-0.119h-23.328c-4.274,0-7.737,3.464-7.737,7.737  c0,4.273,3.463,7.737,7.737,7.737h23.328c10.155,0,19.477,6.713,22.751,16.311H153.452c0.985-2.888,2.482-5.548,4.475-7.864  c4.518-5.25,11.296-8.447,18.276-8.447h105.436c4.274,0,7.737-3.464,7.737-7.737c0-4.273-3.463-7.737-7.737-7.737H176.203  c-0.981,0-1.951,0.048-2.913,0.119V117.478H338.709z"/>
<g>
</g>
<g>
</g>
<g>
</g>
<g>
</g>
<g>
</g>
<g>
</g>
<g>
</g>
<g>
</g>
<g>
</g>
<g>
</g>
<g>
</g>
<g>
</g>
<g>
</g>
<g>
</g>
<g>
</g>
</svg>
