<?xml version="1.0" encoding="iso-8859-1"?>
<!-- Generator: Adobe Illustrator 19.0.0, SVG Export Plug-In . SVG Version: 6.00 Build 0)  -->
<svg xmlns="http://www.w3.org/2000/svg" xmlns:xlink="http://www.w3.org/1999/xlink" version="1.1" id="Layer_1" x="0px" y="0px" viewBox="0 0 511.997 511.997" style="enable-background:new 0 0 511.997 511.997;" xml:space="preserve">
<g>
	<ellipse style="fill:#FFCE6E;" cx="166.969" cy="216.847" rx="21.546" ry="41.797"/>
	<ellipse style="fill:#FFCE6E;" cx="53.711" cy="270.464" rx="21.546" ry="41.797"/>
	<ellipse style="fill:#FFCE6E;" cx="345.035" cy="216.847" rx="21.546" ry="41.797"/>
	<ellipse style="fill:#FFCE6E;" cx="458.291" cy="270.464" rx="21.546" ry="41.797"/>
	<ellipse style="fill:#FFCE6E;" cx="255.997" cy="458.99" rx="21.546" ry="41.797"/>
</g>
<path style="fill:#FF8A3A;" d="M149.508,410.103c20.853,29.167,60.728,48.885,106.492,48.885s85.639-19.719,106.491-48.885  l-38.696-55.542H188.204L149.508,410.103z"/>
<path style="opacity:0.1;enable-background:new    ;" d="M362.491,410.104l-38.696-55.542H188.204l-38.695,55.542  c10.096,14.122,24.662,26.019,42.188,34.546c8.557-9.311,15.397-19.929,20.29-31.4c15.453-0.078,30.482-3.768,44.015-10.653  c13.532,6.885,28.563,10.575,44.015,10.653c4.893,11.472,11.733,22.09,20.29,31.4C337.829,436.123,352.395,424.226,362.491,410.104z  "/>
<g>
	<path style="fill:#FFAC55;" d="M145.42,314.87v55.087c0,19.345-15.738,35.082-35.082,35.082s-35.082-15.737-35.082-35.082v-52.098   c0-11.9-9.646-21.546-21.546-21.546s-21.546,9.646-21.546,21.546v52.098c0,43.106,35.069,78.174,78.174,78.174   c40.837,0,74.44-31.482,77.866-71.447v-22.122L145.42,314.87z"/>
	<path style="fill:#FFAC55;" d="M458.289,296.313c-11.9,0-21.546,9.646-21.546,21.546v52.098c0,19.345-15.737,35.082-35.082,35.082   c-19.345,0-35.082-15.737-35.082-35.082V314.87l-42.782,39.692v22.122l0,0l0,0c3.426,39.965,37.028,71.447,77.866,71.447   c43.106,0,78.174-35.069,78.174-78.174v-52.098C479.835,305.959,470.189,296.313,458.289,296.313z"/>
</g>
<path style="fill:#FFCE6E;" d="M345.033,244.909c-11.9,0-21.546,9.646-21.546,21.546v48.415c0,12.666-10.304,22.97-22.97,22.97  c-12.667,0-22.971-10.304-22.971-22.97V52.611c0-11.9-9.646-21.546-21.546-21.546c-11.9,0-21.546,9.646-21.546,21.546V314.87  c0,12.666-10.304,22.97-22.971,22.97s-22.971-10.304-22.971-22.97v-48.415c0-11.9-9.646-21.546-21.546-21.546  c-11.9,0-21.546,9.646-21.546,21.546v48.415c0,36.426,29.635,66.062,66.063,66.062c17.135,0,32.765-6.56,44.517-17.297  c11.752,10.737,27.382,17.297,44.517,17.297c36.426,0,66.062-29.635,66.062-66.062v-48.415  C366.579,254.555,356.933,244.909,345.033,244.909z"/>
<g style="opacity:0.1;">
	<path d="M166.966,305.288c7.474,0,14.697-1.078,21.546-3.052v-35.781c0-11.9-9.646-21.546-21.546-21.546   s-21.546,9.646-21.546,21.546v35.781C152.269,304.21,159.492,305.288,166.966,305.288z"/>
</g>
<path style="fill:#FF8A3A;" d="M121.335,216.848v10.491c0,25.201,20.43,45.631,45.631,45.631l0,0  c25.201,0,45.631-20.43,45.631-45.631v-10.491H121.335z"/>
<path style="opacity:0.1;enable-background:new    ;" d="M53.711,358.899c7.474,0,14.697-1.079,21.546-3.052v-37.987  c0-11.9-9.646-21.546-21.546-21.546s-21.546,9.646-21.546,21.546v37.987C39.013,357.819,46.236,358.899,53.711,358.899z"/>
<path style="fill:#FF8A3A;" d="M8.08,270.458v10.491c0,25.201,20.43,45.631,45.631,45.631l0,0c25.201,0,45.631-20.43,45.631-45.631  v-10.491H8.08z"/>
<g style="opacity:0.1;">
	<path d="M345.033,244.909c-11.9,0-21.546,9.646-21.546,21.546v35.781c6.848,1.974,14.072,3.052,21.546,3.052   s14.698-1.078,21.546-3.052v-35.781C366.579,254.555,356.933,244.909,345.033,244.909z"/>
</g>
<path style="fill:#FF8A3A;" d="M390.664,216.848v10.491c0,25.201-20.43,45.631-45.631,45.631l0,0  c-25.201,0-45.631-20.43-45.631-45.631v-10.491H390.664z"/>
<path style="opacity:0.1;enable-background:new    ;" d="M458.289,296.313c-11.9,0-21.546,9.646-21.546,21.546v37.987  c6.848,1.974,14.071,3.052,21.546,3.052c7.474,0,14.698-1.079,21.546-3.053v-37.986  C479.835,305.959,470.189,296.313,458.289,296.313z"/>
<path style="fill:#FF8A3A;" d="M503.92,270.458v10.491c0,25.201-20.43,45.631-45.631,45.631l0,0  c-25.201,0-45.631-20.43-45.631-45.631v-10.491H503.92z"/>
<path style="opacity:0.1;enable-background:new    ;" d="M277.546,103.836V52.611c0-11.9-9.646-21.546-21.546-21.546  c-11.9,0-21.546,9.646-21.546,21.546v51.225c6.904,1.714,14.118,2.64,21.546,2.64C263.428,106.476,270.64,105.55,277.546,103.836z"/>
<path style="fill:#FF8A3A;" d="M198.877,11.211v5.823c0,31.548,25.575,57.122,57.122,57.122l0,0  c31.548,0,57.122-25.575,57.122-57.122v-5.823C313.121,11.211,198.877,11.211,198.877,11.211z"/>
<path d="M24.084,325.72v44.237c0,18.662,5.892,36.439,17.038,51.412c2.664,3.58,7.727,4.32,11.305,1.656  c3.58-2.665,4.321-7.726,1.656-11.306c-9.055-12.162-13.841-26.602-13.841-41.761v-37.008c0.009,0.483,6.176,1.199,6.57,1.252  c0.067,0.009,0.134,0.017,0.2,0.026c6.705,0.845,13.618,0.417,20.162-1.279v37.008c0,23.8,19.363,43.162,43.162,43.162  s43.162-19.362,43.162-43.162v-8.961c5.191,6.512,11.451,12.13,18.532,16.602c2.376,1.501,4.833,2.884,7.381,4.111  c-0.731,4.29-1.869,8.504-3.373,12.587c-0.027,0.072-0.053,0.145-0.08,0.218c-3.816,10.174-10.151,19.572-18.141,26.945  c-12.985,11.989-29.846,18.593-47.481,18.593c-12.06,0-23.982-3.148-34.473-9.104c-3.881-2.203-8.813-0.842-11.015,3.038  c-2.203,3.882-0.842,8.812,3.038,11.015c12.919,7.334,27.598,11.21,42.45,11.21c19.783,0,38.763-6.768,54.069-19.131  c17.199,13.563,38.766,22.965,62.124,27.289c1.495,25.716,13.662,44.498,29.469,44.498s27.973-18.781,29.469-44.498  c23.358-4.323,44.924-13.726,62.123-27.289c15.306,12.364,34.286,19.132,54.069,19.132c17.855,0,35.016-5.452,49.625-15.765  c3.646-2.574,4.514-7.615,1.941-11.261c-2.573-3.644-7.613-4.516-11.26-1.941c-11.87,8.379-25.807,12.808-40.307,12.808  c-17.327,0-34.439-6.581-47.198-18.333c-8.81-8.114-15.543-18.375-19.322-29.75c-0.032-0.098-0.064-0.197-0.096-0.296  c-1.058-3.254-1.878-6.591-2.452-9.965c10.127-4.88,18.967-12.006,25.907-20.711v8.961c0,23.8,19.363,43.162,43.162,43.162  c23.798,0,43.162-19.362,43.162-43.162v-37.008c0.005,0.37,3.833,0.834,4.324,0.919c4.73,0.819,9.56,1.001,14.338,0.527  c2.784-0.276,5.562-0.743,8.27-1.447v37.009c0,12.717-3.462,25.186-10.013,36.057c-2.303,3.822-1.072,8.787,2.75,11.091  c3.82,2.303,8.786,1.072,11.091-2.75c8.068-13.389,12.332-28.741,12.332-44.397V325.72c14.501-9.628,24.084-26.098,24.084-44.771  v-10.491c0-4.462-3.616-8.08-8.08-8.08h-16.362c-2.162-24.319-14.021-41.797-29.269-41.797c-15.248,0-27.107,17.478-29.269,41.797  h-16.363c-4.463,0-8.08,3.618-8.08,8.08v10.491c0,18.673,9.584,35.144,24.085,44.772v44.237c0,14.889-12.113,27.002-27.002,27.002  s-27.002-12.113-27.002-27.002c0,0,0-55.082,0-55.087v-42.76c14.501-9.628,24.084-26.098,24.084-44.771v-10.491  c0-4.462-3.616-8.08-8.08-8.08h-16.362c-2.162-24.319-14.021-41.797-29.269-41.797c-15.248,0-27.106,17.478-29.269,41.797h-16.363  c-4.463,0-8.08,3.618-8.08,8.08v10.491c0,18.673,9.584,35.144,24.085,44.772v42.759c0,8.211-6.679,14.89-14.89,14.89  s-14.891-6.68-14.891-14.89V75.087c21.096-10.81,35.576-32.766,35.576-58.054V11.21c0-4.462-3.616-8.08-8.08-8.08h-114.24  c-4.463,0-8.08,3.618-8.08,8.08v5.823c0,25.288,14.481,47.244,35.576,58.054v37.151c0,4.462,3.616,8.08,8.08,8.08  s8.08-3.618,8.08-8.08v-31.4c0.061,0.013,0.123,0.022,0.184,0.033c4.36,0.904,8.829,1.364,13.282,1.364  c4.431,0,8.951-0.401,13.282-1.364c0.061-0.013,0.123-0.022,0.184-0.033V314.87c0,17.121,13.929,31.05,31.051,31.05  s31.05-13.929,31.05-31.05v-35.529c0.029,1.403,12.709,1.71,13.466,1.71c4.518,0,9.091-0.578,13.466-1.711v35.53  c0,2.375-0.157,4.753-0.451,7.11c-2.367,18.85-14.007,35.58-30.902,44.37c-0.075,0.04-0.151,0.078-0.226,0.116  c-8.103,4.19-17.283,6.386-26.402,6.386c-14.35,0-28.476-5.504-39.068-15.182c-3.086-2.819-7.813-2.819-10.899,0  c-10.59,9.676-24.717,15.182-39.068,15.182c-9.163,0-18.284-2.202-26.43-6.4c-0.06-0.031-0.121-0.063-0.181-0.093  c-16.905-8.789-28.551-25.522-30.919-44.378c-0.296-2.356-0.451-4.736-0.451-7.11v-35.53c0,0.208,3.567,0.783,3.973,0.855  c7.584,1.338,15.466,1.084,22.959-0.855v35.53c0,17.121,13.929,31.05,31.05,31.05c17.122,0,31.051-13.929,31.051-31.05V144.559  c0-4.462-3.616-8.08-8.08-8.08s-8.08,3.618-8.08,8.08V314.87c0,8.211-6.68,14.89-14.891,14.89c-8.211,0-14.89-6.68-14.89-14.89  v-42.759c14.501-9.628,24.085-26.098,24.085-44.772v-10.491c0-4.462-3.616-8.08-8.08-8.08h-16.363  c-2.162-24.319-14.021-41.797-29.269-41.797c-15.248,0-27.106,17.478-29.269,41.797h-16.36c-4.463,0-8.08,3.618-8.08,8.08v10.491  c0,18.673,9.584,35.145,24.085,44.772v42.759v55.087c0,14.889-12.113,27.002-27.002,27.002s-27.002-12.113-27.002-27.002V325.72  c14.501-9.628,24.085-26.098,24.085-44.771v-10.491c0-4.462-3.616-8.08-8.08-8.08H82.978c-2.162-24.319-14.021-41.797-29.269-41.797  s-27.107,17.478-29.269,41.797H8.08c-4.463,0-8.08,3.618-8.08,8.08v10.491C0,299.622,9.584,316.092,24.084,325.72z M458.289,236.741  c4.612,0,11.253,9.953,13.021,25.637h-26.042C447.036,246.694,453.678,236.741,458.289,236.741z M420.738,280.949v-2.411h75.102  c0,0,0,2.409,0,2.411c0,20.152-17.434,37.55-37.569,37.55C438.095,318.5,420.738,301.099,420.738,280.949z M273.533,62.794  c-5.581,2.152-11.55,3.283-17.533,3.283c-12.853,0-25.397-5.209-34.515-14.246c-8.24-8.168-13.408-19.165-14.36-30.734  c-0.05-0.601-0.088-1.203-0.115-1.806h97.983c0.24,0-1.031,8.042-1.198,8.765C300.202,43.627,288.588,56.987,273.533,62.794z   M345.033,183.131c4.612,0,11.253,9.953,13.021,25.637h-26.042C333.779,193.084,340.421,183.131,345.033,183.131z M358.25,262.477  c-4.191,1.577-8.688,2.412-13.17,2.412c-0.016,0-0.031,0.001-0.047,0.001s-0.031-0.001-0.047-0.001  c-5.783-0.004-11.567-1.38-16.736-3.973c-12.302-6.174-20.769-18.902-20.769-33.577v-2.411h75.102v2.411  C382.584,242.702,372.619,257.069,358.25,262.477z M256,492.707c-4.663,0-11.401-10.174-13.078-26.16  c0.086,0.784,11.679,0.522,13.078,0.522c4.36,0,8.731-0.176,13.078-0.522C267.401,482.533,260.663,492.707,256,492.707z   M186.652,410.065c0.043-0.082,0.085-0.165,0.128-0.247c0.922-1.754,9.445-22.378,8.069-22.694c0.178,0.041,0.359,0.068,0.536,0.108  c5.275,1.184,10.691,1.781,16.098,1.781c16.151,0,31.713-5.243,44.517-14.886c12.805,9.643,28.366,14.886,44.517,14.886  c5.41,0,10.831-0.614,16.112-1.784c0.173-0.039,0.348-0.065,0.521-0.104c1.608,7.915,4.358,15.61,8.104,22.763  c0.025,0.047,0.048,0.094,0.073,0.141c2.924,5.555,6.459,10.796,10.563,15.634c0.009,0.011,0.017,0.022,0.027,0.032  c-16.951,12.838-38.59,21.212-61.873,24.09c-11.967,1.479-24.129,1.472-36.096-0.001c-23.281-2.877-44.919-11.251-61.868-24.088  c0.013-0.015,0.025-0.03,0.038-0.045C180.209,420.825,183.734,415.601,186.652,410.065z M166.966,183.131  c4.612,0,11.253,9.953,13.021,25.637h-26.042C155.713,193.084,162.354,183.131,166.966,183.131z M129.415,227.339v-2.411h16.005  h43.092h16.005v2.411c0,14.676-8.468,27.404-20.769,33.577c-10.409,5.224-23.096,5.255-33.566,0  C137.883,254.743,129.415,242.015,129.415,227.339z M53.709,236.741c4.612,0,11.253,9.953,13.021,25.637H40.689  C42.456,246.694,49.098,236.741,53.709,236.741z M16.159,278.538h75.102v2.411c0,14.675-8.466,27.402-20.767,33.576  c-5.148,2.584-11.048,3.971-16.809,3.974c-13.175-0.01-25.601-7.156-32.31-18.48c-3.409-5.753-5.216-12.383-5.216-19.07V278.538z"/>
<g>
</g>
<g>
</g>
<g>
</g>
<g>
</g>
<g>
</g>
<g>
</g>
<g>
</g>
<g>
</g>
<g>
</g>
<g>
</g>
<g>
</g>
<g>
</g>
<g>
</g>
<g>
</g>
<g>
</g>
</svg>
