<svg xmlns="http://www.w3.org/2000/svg" viewBox="0 0 48 48"><title>12-disco ball</title><g id="_12-disco_ball" data-name="12-disco ball"><path d="M19.23,36.57c.9,3.68,2.22,6.1,3.71,6.4-.45-.03-.9-.07-1.34-.13-3.26-.7-6.06-3.69-7.78-7.94A22.358,22.358,0,0,0,19.23,36.57Z" style="fill:#e0b8ff"/><path d="M34.1,35.1c-1.73,4.14-4.5,7.05-7.7,7.74-.44.06-.89.1-1.34.13,1.48-.3,2.8-2.71,3.7-6.37A24.275,24.275,0,0,0,34.1,35.1Z" style="fill:#c78ff5"/><path d="M35.6,29.76c3.66-.9,6.07-2.22,6.37-3.7-.03.45-.07.9-.13,1.34-.69,3.2-3.6,5.97-7.74,7.7A24.275,24.275,0,0,0,35.6,29.76Z" style="fill:#e0b8ff"/><path d="M29.73,30.73a41.505,41.505,0,0,1-.97,5.87A28.127,28.127,0,0,1,24,37a26.364,26.364,0,0,1-4.77-.43,41.742,41.742,0,0,1-.96-5.88A52.149,52.149,0,0,0,24,31C26,31,27.93,30.9,29.73,30.73Z" style="fill:#c78ff5"/><path d="M6,25c0,1.84,2.47,3.48,6.36,4.58a24.8,24.8,0,0,0,1.46,5.32c-4.6-2.11-7.66-5.61-7.81-9.59C6,25.21,6,25.1,6,25Z" style="fill:#c78ff5"/><path d="M6.01,24.69c.15-4.04,3.29-7.58,8-9.68a22.825,22.825,0,0,0-1.61,5.4C8.48,21.51,6,23.16,6,25,6,24.9,6,24.79,6.01,24.69Z" style="fill:#c78ff5"/><path d="M41.84,22.6c.06.44.1.89.13,1.34-.3-1.49-2.72-2.81-6.4-3.71a22.358,22.358,0,0,0-1.67-5.41C38.15,16.54,41.14,19.34,41.84,22.6Z" style="fill:#e0b8ff"/><path d="M36,25a28.127,28.127,0,0,1-.4,4.76,41.505,41.505,0,0,1-5.87.97C29.9,28.93,30,27,30,25a52.149,52.149,0,0,0-.31-5.73,41.742,41.742,0,0,1,5.88.96A26.364,26.364,0,0,1,36,25Z" style="fill:#c78ff5"/><path d="M24,7c4.11,0,7.74,3.1,9.9,7.82a24.8,24.8,0,0,0-5.32-1.46C27.48,9.47,25.84,7,24,7Z" style="fill:#c78ff5"/><path d="M28.58,13.36a37.319,37.319,0,0,1,1.11,5.91C27.9,19.09,25.99,19,24,19a51.408,51.408,0,0,0-5.69.31,37.375,37.375,0,0,1,1.1-5.91A26.221,26.221,0,0,1,24,13,29.413,29.413,0,0,1,28.58,13.36Z" style="fill:#e0b8ff"/><path d="M14.01,15.01C16.16,10.18,19.83,7,24,7c-1.84,0-3.49,2.48-4.59,6.4A22.825,22.825,0,0,0,14.01,15.01Z" style="fill:#c78ff5"/><path d="M6.01,25.31c.15,3.98,3.21,7.48,7.81,9.59,1.72,4.25,4.52,7.24,7.78,7.94A17.981,17.981,0,0,1,6.01,25.31Z" style="fill:#ffa1c8"/><path d="M22.94,42.97c-1.49-.3-2.81-2.72-3.71-6.4A26.364,26.364,0,0,0,24,37a28.127,28.127,0,0,0,4.76-.4c-.9,3.66-2.22,6.07-3.7,6.37a.308.308,0,0,0-.1.01c-.32.01-.64.02-.96.02C23.64,43,23.29,42.99,22.94,42.97Z" style="fill:#ffa1c8"/><path d="M34.1,35.1c4.14-1.73,7.05-4.5,7.74-7.7A18.013,18.013,0,0,1,26.4,42.84C29.6,42.15,32.37,39.24,34.1,35.1Z" style="fill:#ffa1c8"/><path d="M35.6,29.76a24.275,24.275,0,0,1-1.5,5.34,24.275,24.275,0,0,1-5.34,1.5,41.505,41.505,0,0,0,.97-5.87A41.505,41.505,0,0,0,35.6,29.76Z" style="fill:#ffa1c8"/><path d="M18.27,30.69a41.742,41.742,0,0,0,.96,5.88,22.358,22.358,0,0,1-5.41-1.67,24.8,24.8,0,0,1-1.46-5.32A37.319,37.319,0,0,0,18.27,30.69Z" style="fill:#ffb9d5"/><path d="M6,25c0-1.84,2.48-3.49,6.4-4.59A26.221,26.221,0,0,0,12,25a29.413,29.413,0,0,0,.36,4.58C8.47,28.48,6,26.84,6,25Z" style="fill:#ffa1c8"/><path d="M18.31,19.31A51.408,51.408,0,0,0,18,25c0,1.99.09,3.9.27,5.69a37.319,37.319,0,0,1-5.91-1.11A29.413,29.413,0,0,1,12,25a26.221,26.221,0,0,1,.4-4.59A37.375,37.375,0,0,1,18.31,19.31Z" style="fill:#e0b8ff"/><path d="M30,25c0,2-.1,3.93-.27,5.73C27.93,30.9,26,31,24,31a52.149,52.149,0,0,1-5.73-.31C18.09,28.9,18,26.99,18,25a51.408,51.408,0,0,1,.31-5.69A51.408,51.408,0,0,1,24,19c1.99,0,3.9.09,5.69.27A52.149,52.149,0,0,1,30,25Z" style="fill:#ffb9d5"/><path d="M41.98,24.04c.01.32.02.64.02.96,0,.36-.01.71-.03,1.06-.3,1.48-2.71,2.8-6.37,3.7A28.127,28.127,0,0,0,36,25a26.364,26.364,0,0,0-.43-4.77c3.68.9,6.1,2.22,6.4,3.71A.308.308,0,0,0,41.98,24.04Z" style="fill:#ffa1c8"/><path d="M33.9,14.82C31.74,10.1,28.11,7,24,7A18,18,0,0,1,41.84,22.6C41.14,19.34,38.15,16.54,33.9,14.82Z" style="fill:#ffa1c8"/><path d="M6.01,24.69A17.987,17.987,0,0,1,24,7c-4.17,0-7.84,3.18-9.99,8.01C9.3,17.11,6.16,20.65,6.01,24.69Z" style="fill:#ffa1c8"/><path d="M19.41,13.4a37.375,37.375,0,0,0-1.1,5.91,37.375,37.375,0,0,0-5.91,1.1,22.825,22.825,0,0,1,1.61-5.4A22.825,22.825,0,0,1,19.41,13.4Z" style="fill:#ffb9d5"/><path d="M33.9,14.82a22.358,22.358,0,0,1,1.67,5.41,41.742,41.742,0,0,0-5.88-.96,37.319,37.319,0,0,0-1.11-5.91A24.8,24.8,0,0,1,33.9,14.82Z" style="fill:#ffb9d5"/><path d="M24,7c1.84,0,3.48,2.47,4.58,6.36A29.413,29.413,0,0,0,24,13a26.221,26.221,0,0,0-4.59.4C20.51,9.48,22.16,7,24,7Z" style="fill:#ffa1c8"/><path d="M24,4a3.192,3.192,0,0,1,3,3l-.04.25a17.648,17.648,0,0,0-5.92,0L21,7A3.192,3.192,0,0,1,24,4Z" style="fill:#bec3d2"/><path d="M19.23,36.57a22.358,22.358,0,0,1-5.41-1.67c1.72,4.25,4.52,7.24,7.78,7.94.44.06.89.1,1.34.13C21.45,42.67,20.13,40.25,19.23,36.57Z" style="fill:#b674f2"/><path d="M33.487,36.413A17.948,17.948,0,0,1,29,37c-.116,0-.228-.015-.344-.017-.9,3.437-2.17,5.7-3.6,5.987.45-.03.9-.07,1.34-.13C29.248,42.226,31.751,39.847,33.487,36.413Z" style="fill:#a260e5"/><path d="M19.23,36.57A26.364,26.364,0,0,0,24,37c.953,0,1.882-.059,2.794-.149a17.877,17.877,0,0,1-8.136-3.133C18.823,34.734,19.014,35.69,19.23,36.57Z" style="fill:#a260e5"/><path d="M13.82,34.9a24.8,24.8,0,0,1-1.46-5.32C8.47,28.48,6,26.84,6,25c0,.1,0,.21.01.31C6.16,29.29,9.22,32.79,13.82,34.9Z" style="fill:#a260e5"/><path d="M11.092,20.817a16.932,16.932,0,0,1,.09-4.24c-3.1,2.1-5.055,4.951-5.172,8.113C6,24.79,6,24.9,6,25,6,23.374,7.938,21.9,11.092,20.817Z" style="fill:#a260e5"/><path d="M13.82,34.9c-4.6-2.11-7.66-5.61-7.81-9.59A17.981,17.981,0,0,0,21.6,42.84C18.34,42.14,15.54,39.15,13.82,34.9Z" style="fill:#ff73a5"/><path d="M28.656,36.983a18.147,18.147,0,0,1-1.862-.132c-.912.09-1.841.149-2.794.149a26.364,26.364,0,0,1-4.77-.43c.9,3.68,2.22,6.1,3.71,6.4.35.02.7.03,1.06.03.32,0,.64-.01.96-.02a.308.308,0,0,1,.1-.01C26.486,42.681,27.76,40.42,28.656,36.983Z" style="fill:#ff73a5"/><path d="M26.4,42.84a18.012,18.012,0,0,0,13.607-9.619,17.9,17.9,0,0,1-6.52,3.192C31.751,39.847,29.248,42.226,26.4,42.84Z" style="fill:#ff73a5"/><path d="M14.906,30.176c-.9-.177-1.756-.375-2.546-.6a24.8,24.8,0,0,0,1.46,5.32,22.358,22.358,0,0,0,5.41,1.67c-.216-.88-.407-1.836-.572-2.852A18.069,18.069,0,0,1,14.906,30.176Z" style="fill:#ff8fb8"/><path d="M12.36,29.58A29.413,29.413,0,0,1,12,25c0-.038.005-.075.005-.113a17.854,17.854,0,0,1-.913-4.07C7.938,21.9,6,23.374,6,25,6,26.84,8.47,28.48,12.36,29.58Z" style="fill:#ff73a5"/><path d="M12.005,24.887c0,.038-.005.075-.005.113a29.413,29.413,0,0,0,.36,4.58c.79.221,1.646.419,2.546.6A17.93,17.93,0,0,1,12.005,24.887Z" style="fill:#b674f2"/><path d="M11.182,16.577a17.839,17.839,0,0,1,1.824-5.811,17.94,17.94,0,0,0-7,13.924C6.127,21.528,8.082,18.676,11.182,16.577Z" style="fill:#ff73a5"/><rect x="24" y="23" width="2" height="2" style="fill:#fcfcfd"/><rect x="26" y="19" width="2" height="2" style="fill:#fcfcfd"/><rect x="30" y="15" width="2" height="2" style="fill:#fcfcfd"/><rect x="26" y="15" width="2" height="2" style="fill:#fcfcfd"/><rect x="20" y="15" width="2" height="2" style="fill:#fcfcfd"/><rect x="22" y="25" width="2" height="2" style="fill:#fcfcfd"/><rect x="26" y="25" width="2" height="2" style="fill:#fcfcfd"/><rect x="28" y="23" width="2" height="2" style="fill:#fcfcfd"/><rect x="22" y="19" width="2" height="2" style="fill:#fcfcfd"/><rect x="24" y="29" width="2" height="2" style="fill:#fcfcfd"/><rect x="20" y="21" width="2" height="2" style="fill:#fcfcfd"/><rect x="20" y="27" width="2" height="2" style="fill:#fcfcfd"/><rect x="18" y="25" width="2" height="2" style="fill:#fcfcfd"/><rect x="24" y="21" width="2" height="2" style="fill:#ffe1ed"/><rect x="30" y="17" width="2" height="2" style="fill:#ffe1ed"/><rect x="24" y="17" width="2" height="2" style="fill:#f5e1ff"/><rect x="32" y="27" width="2" height="2" style="fill:#fcfcfd"/><rect x="34" y="21" width="2" height="2" style="fill:#fcfcfd"/><rect x="30" y="21" width="2" height="2" style="fill:#f5e1ff"/><rect x="32" y="23" width="2" height="2" style="fill:#f5e1ff"/><rect x="22" y="31" width="2" height="2" style="fill:#fcfcfd"/><rect x="24" y="33" width="2" height="2" style="fill:#fcfcfd"/><rect x="26" y="31" width="2" height="2" style="fill:#f5e1ff"/><rect x="22" y="33" width="2" height="2" style="fill:#f5e1ff"/><rect x="30" y="33" width="2" height="2" style="fill:#fcfcfd"/><rect x="32" y="31" width="2" height="2" style="fill:#f5e1ff"/><rect x="20" y="31" width="2" height="2" style="fill:#f5e1ff"/><rect x="14" y="25" width="2" height="2" style="fill:#fcfcfd"/><rect x="16" y="21" width="2" height="2" style="fill:#fcfcfd"/><rect x="14" y="21" width="2" height="2" style="fill:#f5e1ff"/><rect x="26" y="23" width="2" height="2" style="fill:#ffe1ed"/><rect x="22" y="9" width="2" height="2" style="fill:#fcfcfd"/><rect x="24" y="9" width="2" height="2" style="fill:#ffe1ed"/><rect x="22" y="27" width="2" height="2" style="fill:#ffe1ed"/><rect x="22" y="23" width="2" height="2" style="fill:#ffe1ed"/><rect x="38" y="23" width="2" height="2" style="fill:#fcfcfd"/><rect x="36" y="31" width="2" height="2" style="fill:#fcfcfd"/><rect x="36" y="17" width="2" height="2" style="fill:#ffe1ed"/><rect x="38" y="25" width="2" height="2" style="fill:#ffe1ed"/><rect x="23" y="1" width="2" height="4" style="fill:#bec3d2"/><rect x="23" y="45" width="2" height="2" style="fill:#f5d882"/><rect x="44" y="24" width="3" height="2" style="fill:#f5d882"/><rect x="1" y="24" width="3" height="2" style="fill:#f5d882"/><rect x="38.2" y="38.701" width="2" height="2.998" transform="translate(-16.944 39.499) rotate(-45.007)" style="fill:#f5d882"/><rect x="7.8" y="8.301" width="2" height="2.998" transform="translate(-4.352 9.095) rotate(-45.007)" style="fill:#f5d882"/><rect x="7.301" y="39.2" width="2.998" height="2" transform="translate(-25.848 17.997) rotate(-45)" style="fill:#f5d882"/><rect x="37.701" y="8.8" width="2.998" height="2" transform="translate(4.552 30.589) rotate(-45)" style="fill:#f5d882"/><path d="M38.164,15.6c.156.234.3.476.439.716a18.616,18.616,0,0,0-3.956-2.243,17.649,17.649,0,0,0-2.685-4.079,17.005,17.005,0,0,1,5.5,4.622l1.582-1.223A18.871,18.871,0,0,0,27.934,6.412,4.351,4.351,0,0,0,25,3.16V1H23V3.16a4.351,4.351,0,0,0-2.934,3.255,19,19,0,0,0-8,33.366l1.257-1.555A17,17,0,0,1,9.023,33a17.7,17.7,0,0,0,4.035,2.616A18.672,18.672,0,0,0,15.313,39.6c-.238-.142-.478-.281-.71-.436L13.5,40.834A19,19,0,0,0,39.83,14.489ZM24,5a2.121,2.121,0,0,1,1.7,1.083C25.141,6.033,24.573,6,24,6s-1.143.036-1.707.086A2.124,2.124,0,0,1,24,5Zm0,3a16.97,16.97,0,0,1,7.085,1.555l-1.15,1.153a14.163,14.163,0,0,1,1.851,2.346c-.784-.221-1.6-.4-2.422-.554a19.374,19.374,0,0,0-1.147-2.944l-1.789.9a15.843,15.843,0,0,1,.716,1.729A30.134,30.134,0,0,0,24,12a27.61,27.61,0,0,0-3.153.2,16.055,16.055,0,0,1,.727-1.755l-1.789-.895a19.448,19.448,0,0,0-1.155,3,25.358,25.358,0,0,0-2.509.637,15.178,15.178,0,0,1,1.1-1.553l-1.543-1.272a18.32,18.32,0,0,0-2.409,3.907A17.883,17.883,0,0,0,9,17.016,17.011,17.011,0,0,1,24,8ZM35,25a28.038,28.038,0,0,1-.277,3.937c-1.2.268-2.5.49-3.9.66.039-.511.075-1.025.1-1.548l-2-.1c-.031.627-.073,1.244-.122,1.85-1.544.126-3.153.2-4.807.2s-3.262-.078-4.8-.223C19.071,28.242,19,26.643,19,25q0-.495.009-.982l-2-.036C17,24.319,17,24.659,17,25c0,1.55.057,3.074.167,4.542a35.8,35.8,0,0,1-3.912-.758A28.091,28.091,0,0,1,13,25a26.036,26.036,0,0,1,.277-3.79,35.982,35.982,0,0,1,3.918-.756c-.042.493-.082.987-.11,1.491l2,.111q.052-.933.138-1.835C20.755,20.078,22.36,20,24,20s3.239.071,4.772.2C28.917,21.738,29,23.347,29,25q0,.5-.008.985l2,.029C31,25.679,31,25.34,31,25c0-1.571-.068-3.114-.2-4.6,1.391.168,2.693.389,3.887.655A25.764,25.764,0,0,1,35,25ZM19.4,31.806c1.48.126,3.02.194,4.6.194s3.111-.06,4.6-.172c-.171,1.392-.391,2.7-.657,3.892A28.1,28.1,0,0,1,24,36a25.581,25.581,0,0,1-3.944-.308C19.79,34.5,19.569,33.2,19.4,31.806Zm-1.475,3.457a21.551,21.551,0,0,1-3.332-1.125,22.911,22.911,0,0,1-.947-3.2c1.159.264,2.406.479,3.713.647C17.505,32.883,17.7,34.11,17.925,35.263Zm12.712-3.627c1.3-.148,2.53-.342,3.686-.572a22.756,22.756,0,0,1-.995,3.256,22.818,22.818,0,0,1-3.263,1C30.294,34.165,30.488,32.934,30.637,31.636ZM17.411,18.406c-1.3.166-2.548.378-3.7.639a21.385,21.385,0,0,1,1.058-3.25A21.644,21.644,0,0,1,18.06,14.7C17.8,15.863,17.579,17.1,17.411,18.406Zm2.8-4.117A25.647,25.647,0,0,1,24,14a28.118,28.118,0,0,1,3.774.254,35.134,35.134,0,0,1,.763,3.913C27.07,18.057,25.549,18,24,18s-3.078.066-4.54.189A35.7,35.7,0,0,1,20.213,14.289Zm10.371,4.07c-.17-1.31-.394-2.552-.658-3.717a22.839,22.839,0,0,1,3.208.95,21.237,21.237,0,0,1,1.132,3.334C33.111,18.7,31.881,18.505,30.584,18.359ZM10.054,31.267,8.808,32.611A16.871,16.871,0,0,1,8.816,17.4l1.238,1.335a14.449,14.449,0,0,1,2.1-1.574,25.305,25.305,0,0,0-.61,2.459,17.869,17.869,0,0,0-3.639,1.515l1,1.733A14.125,14.125,0,0,1,11.2,21.841,27.876,27.876,0,0,0,11,25a30.052,30.052,0,0,0,.182,3.154A14.127,14.127,0,0,1,8.9,27.133l-1,1.733a17.767,17.767,0,0,0,3.6,1.5c.152.823.331,1.629.551,2.408A14.3,14.3,0,0,1,10.054,31.267Zm5.264,8.34,1.59-1.209a15.337,15.337,0,0,1-1.085-1.675,24.97,24.97,0,0,0,2.585.679,20.949,20.949,0,0,0,1.021,3l1.832-.8a17.593,17.593,0,0,1-.659-1.83A27.437,27.437,0,0,0,24,38a29.846,29.846,0,0,0,3.392-.207,17.16,17.16,0,0,1-.653,1.806l1.832.8a21.075,21.075,0,0,0,.994-2.937c.869-.168,1.72-.366,2.54-.609A15.431,15.431,0,0,1,31.094,38.4l1.578,1.2a16.892,16.892,0,0,1-17.354.012Zm17.389-.033a18.527,18.527,0,0,0,2.137-3.729,18.666,18.666,0,0,0,3.6-2.041L37.259,32.2a15.289,15.289,0,0,1-1.4.912c.242-.817.435-1.668.6-2.535a20.86,20.86,0,0,0,2.939-1l-.8-1.831a17.317,17.317,0,0,1-1.807.651A30,30,0,0,0,37,25a27.733,27.733,0,0,0-.231-3.4,17.636,17.636,0,0,1,1.832.659l.8-1.831a20.822,20.822,0,0,0-3-1.022,25.017,25.017,0,0,0-.684-2.587,15.529,15.529,0,0,1,1.672,1.083l1.21-1.591a16.949,16.949,0,0,1-5.9,23.26Z"/><rect x="23" y="45" width="2" height="2"/><rect x="44" y="24" width="3" height="2"/><rect x="1" y="24" width="3" height="2"/><rect x="38.203" y="38.703" width="2" height="3" transform="translate(-16.945 39.489) rotate(-44.993)"/><rect x="7.797" y="8.297" width="2" height="3" transform="translate(-4.351 9.088) rotate(-44.993)"/><rect x="7.297" y="39.203" width="3" height="2" transform="translate(-25.851 17.995) rotate(-45)"/><rect x="37.703" y="8.797" width="3" height="2" transform="translate(4.555 30.59) rotate(-45)"/></g></svg>