<svg xmlns="http://www.w3.org/2000/svg" viewBox="0 0 48 48"><title>03-gift</title><g id="_03-gift" data-name="03-gift"><path d="M19,9H13.18a6.507,6.507,0,0,1-1.02-4.991C15.96,4.077,19,6.818,19,9Z" style="fill:#8f4cd6"/><path d="M35.84,4.007A6.507,6.507,0,0,1,34.82,9H29C29,6.818,32.04,4.077,35.84,4.007Z" style="fill:#8f4cd6"/><path d="M19,9c0-2.18-3.04-4.921-6.84-4.991a3.83,3.83,0,0,1,1.02-1.83c1.97-1.97,5.72-1.41,8.39,1.25A7.834,7.834,0,0,1,24,8.758c0,.08-.01.16-.01.24Z" style="fill:#d2a0f5"/><path d="M35.84,4.007C32.04,4.077,29,6.818,29,9H24.01c0-.08-.01-.16-.01-.24a7.834,7.834,0,0,1,2.43-5.331c2.67-2.66,6.42-3.22,8.39-1.25A3.83,3.83,0,0,1,35.84,4.007Z" style="fill:#d2a0f5"/><path d="M13.18,2.177a3.83,3.83,0,0,0-1.02,1.83c.068,0,.133.01.2.013,2.01-1.771,5.616-1.176,8.209,1.407A8.514,8.514,0,0,1,22.727,9H23.99c0-.08.01-.16.01-.24a7.834,7.834,0,0,0-2.43-5.331C18.9.767,15.15.207,13.18,2.177Z" style="fill:#ebccff"/><path d="M35.639,4.02c.068,0,.133-.011.2-.013a3.83,3.83,0,0,0-1.02-1.83C32.85.207,29.1.767,26.43,3.427A7.834,7.834,0,0,0,24,8.758c0,.08.01.16.01.24h1.263A8.514,8.514,0,0,1,27.43,5.427C30.023,2.844,33.629,2.249,35.639,4.02Z" style="fill:#ebccff"/><polygon points="24.01 8.998 29 8.998 29 16.998 28 16.998 20 16.998 19 16.998 19 8.998 23.99 8.998 24.01 8.998" style="fill:#d2a0f5"/><path d="M47,15a2.006,2.006,0,0,1-2,2H29V9H45a2.006,2.006,0,0,1,2,2Z" style="fill:#bdf052"/><path d="M19,9v8H3a2.006,2.006,0,0,1-2-2V11A2.006,2.006,0,0,1,3,9H19Z" style="fill:#bdf052"/><polygon points="24.01 8.998 29 8.998 29 16.998 28 16.998 20 16.998 19 16.998 19 8.998 23.99 8.998 24.01 8.998" style="fill:#d2a0f5"/><path d="M47,15a2.006,2.006,0,0,1-2,2H29V9H45a2.006,2.006,0,0,1,2,2Z" style="fill:#bdf052"/><path d="M19,9v8H3a2.006,2.006,0,0,1-2-2V11A2.006,2.006,0,0,1,3,9H19Z" style="fill:#bdf052"/><path d="M45,15H31V9H29v8H45a2.006,2.006,0,0,0,2-2V13A2.006,2.006,0,0,1,45,15Z" style="fill:#a7e340"/><path d="M17,15H3a2.006,2.006,0,0,1-2-2v2a2.006,2.006,0,0,0,2,2H19V9H17Z" style="fill:#a7e340"/><polygon points="23.99 11.998 24.01 11.998 29 11.998 29 8.998 24.01 8.998 23.99 8.998 19 8.998 19 11.998 23.99 11.998" style="fill:#ebccff"/><path d="M45,9H29v3H45a2.006,2.006,0,0,1,2,2V11A2.006,2.006,0,0,0,45,9Z" style="fill:#e2ff9c"/><path d="M3,12H19V9H3a2.006,2.006,0,0,0-2,2v3A2.006,2.006,0,0,1,3,12Z" style="fill:#e2ff9c"/><rect x="29" y="8.998" width="2" height="3" style="fill:#bdf052"/><rect x="17" y="8.998" width="2" height="3" style="fill:#bdf052"/><rect x="19" y="14.998" width="10" height="2" style="fill:#c78ff5"/><path d="M12.16,4.007a5.368,5.368,0,0,0-.054,2.279c.018-.093.03-.188.054-.278A7.848,7.848,0,0,1,18.254,9H19C19,6.818,15.96,4.077,12.16,4.007Z" style="fill:#7a3eb5"/><path d="M35.84,6.008c.024.09.036.185.054.278a5.368,5.368,0,0,0-.054-2.279C32.04,4.077,29,6.818,29,9h.746A7.848,7.848,0,0,1,35.84,6.008Z" style="fill:#7a3eb5"/><path d="M18.254,7A3.527,3.527,0,0,1,19,9h3.727a8.05,8.05,0,0,0-.918-2Z" style="fill:#c78ff5"/><path d="M25.273,9H29a3.527,3.527,0,0,1,.746-2H26.191A8.05,8.05,0,0,0,25.273,9Z" style="fill:#c78ff5"/><path d="M21.809,7a8.05,8.05,0,0,1,.918,2H23.99c0-.08.01-.16.01-.24A6.287,6.287,0,0,0,23.727,7Z" style="fill:#d2a0f5"/><path d="M24.273,7A6.287,6.287,0,0,0,24,8.758c0,.08.01.16.01.24h1.263a8.05,8.05,0,0,1,.918-2Z" style="fill:#d2a0f5"/><rect x="20" y="16.998" width="8" height="30.002" style="fill:#8f4cd6"/><path d="M20,17V47H6a2.006,2.006,0,0,1-2-2V17H20Z" style="fill:#ffa1c8"/><path d="M29,17H44V45a2.006,2.006,0,0,1-2,2H28V17Z" style="fill:#ffa1c8"/><rect x="4" y="16.998" width="16" height="3" style="fill:#ff5f96"/><rect x="28" y="16.998" width="16" height="3" style="fill:#ff5f96"/><rect x="20" y="16.998" width="8" height="3" style="fill:#7a3eb5"/><rect x="28" y="16.998" width="2" height="3" style="fill:#d72878"/><rect x="28" y="19.998" width="2" height="27.002" style="fill:#ff8fb8"/><rect x="18" y="16.998" width="2" height="3" style="fill:#d72878"/><rect x="18" y="19.998" width="2" height="27.002" style="fill:#ff8fb8"/><rect x="20" y="44" width="8" height="3" style="fill:#7a3eb5"/><path d="M6,44a2.006,2.006,0,0,1-2-2v3a2.006,2.006,0,0,0,2,2H20V44Z" style="fill:#ff73a5"/><path d="M42,44H28v3H42a2.006,2.006,0,0,0,2-2V42A2.006,2.006,0,0,1,42,44Z" style="fill:#ff73a5"/><path d="M20,34.717a35.508,35.508,0,0,0,8,4.35V20H20Z" style="fill:#a260e5"/><path d="M10.251,20A22.31,22.31,0,0,0,18,33.113V20Z" style="fill:#ffb9d5"/><path d="M30,39.786A44.467,44.467,0,0,0,44,42h0V20H30Z" style="fill:#ffb9d5"/><path d="M28,39.067c.653.256,1.322.494,2,.719V20H28Z" style="fill:#ffa1c8"/><path d="M20,20H18V33.113c.636.555,1.3,1.092,2,1.6Z" style="fill:#ffa1c8"/><rect x="35" y="10" width="6" height="1" rx="0.5" ry="0.5" style="fill:#bdf052"/><path d="M41.5,10.5a.5.5,0,0,0,.5.5h1a.5.5,0,0,0,0-1H42A.5.5,0,0,0,41.5,10.5Z" style="fill:#bdf052"/><rect x="21" y="45" width="4" height="1" rx="0.5" ry="0.5" style="fill:#8f4cd6"/><path d="M25.5,45.5a.5.5,0,0,0,.5.5h1a.5.5,0,0,0,0-1H26A.5.5,0,0,0,25.5,45.5Z" style="fill:#8f4cd6"/><rect x="20" y="10" width="6" height="1" rx="0.5" ry="0.5" style="fill:#f5e1ff"/><path d="M26.5,10.5a.5.5,0,0,0,.5.5h1a.5.5,0,0,0,0-1H27A.5.5,0,0,0,26.5,10.5Z" style="fill:#f5e1ff"/><path d="M28.5,45.5c0,.276.168.5.375.5h11.25c.207,0,.375-.224.375-.5s-.168-.5-.375-.5H28.875C28.668,45,28.5,45.224,28.5,45.5Z" style="fill:#ff468c"/><path d="M41.5,45.5a.5.5,0,0,0,.5.5h1a.5.5,0,0,0,0-1H42A.5.5,0,0,0,41.5,45.5Z" style="fill:#ff468c"/><ellipse cx="40.003" cy="28.987" rx="1.642" ry="2.286" transform="translate(-8.777 36.793) rotate(-45.02)" style="fill:#f6fafd"/><ellipse cx="40" cy="24" rx="0.825" ry="1.148" transform="translate(-5.251 35.329) rotate(-45.02)" style="fill:#f6fafd"/><ellipse cx="31" cy="3" rx="0.825" ry="1.148" transform="translate(6.965 22.807) rotate(-45.02)" style="fill:#f6fafd"/><ellipse cx="32.746" cy="2.5" rx="0.413" ry="0.574" transform="translate(7.83 23.896) rotate(-45.02)" style="fill:#f6fafd"/><ellipse cx="44.746" cy="10.5" rx="0.413" ry="0.574" transform="translate(5.689 34.729) rotate(-45.02)" style="fill:#f6fafd"/><path d="M45,8H43v2h2a1,1,0,0,1,1,1v4a1,1,0,0,1-1,1H30V10H41V8H36.432c.976-2.457.684-4.947-.9-6.531-2.357-2.358-6.756-1.793-9.8,1.257A9.869,9.869,0,0,0,24,5.048a9.938,9.938,0,0,0-1.726-2.322C19.225-.325,14.825-.889,12.468,1.469c-1.584,1.584-1.876,4.074-.9,6.531H3a3,3,0,0,0-3,3v4a3,3,0,0,0,3,3v2H5V18H19V46H6a1,1,0,0,1-1-1V22H3V45a3,3,0,0,0,3,3H42a3,3,0,0,0,3-3V43H43v2a1,1,0,0,1-1,1H29V44H27v2H21V18h6V38h2V18H43V41h2V18a3,3,0,0,0,3-3V11A3,3,0,0,0,45,8ZM34.249,8H30.288a6.464,6.464,0,0,1,4.7-2.923A5.825,5.825,0,0,1,34.249,8ZM18,16H3a1,1,0,0,1-1-1V11a1,1,0,0,1,1-1H18ZM13.011,5.077A6.464,6.464,0,0,1,17.712,8H13.751A5.837,5.837,0,0,1,13.011,5.077Zm.657-1.926a2.646,2.646,0,0,1,.214-.268C15.46,1.307,18.589,1.87,20.86,4.14A7.182,7.182,0,0,1,22.94,8H19.853C19.255,5.866,16.84,3.726,13.668,3.151ZM28,16H20V10h8Zm.147-8H25.06a7.182,7.182,0,0,1,2.08-3.86c2.271-2.27,5.4-2.833,6.977-1.257a2.522,2.522,0,0,1,.215.268C31.16,3.726,28.745,5.867,28.147,8Z"/><rect x="27" y="40" width="2" height="2"/></g></svg>