<svg xmlns="http://www.w3.org/2000/svg" viewBox="0 0 48 48"><title>11-microphone</title><g id="_11-microphone" data-name="11-microphone"><polygon points="15 29 15 32 5 34 5 31 15 29" style="fill:#c78ff5"/><circle cx="13" cy="38" r="2" style="fill:#c78ff5"/><circle cx="3" cy="41" r="2" style="fill:#c78ff5"/><circle cx="37" cy="21" r="2" style="fill:#c78ff5"/><path d="M15,15H33l.19.05A9.438,9.438,0,0,1,30,19H18a9.438,9.438,0,0,1-3.19-3.95Z" style="fill:#4e535e"/><path d="M14.05,12h19.9a9.761,9.761,0,0,1-.76,3.05L33,15H15l-.19.05A9.761,9.761,0,0,1,14.05,12Z" style="fill:#bdf052"/><path d="M24,1A10,10,0,0,1,34,11c0,.34-.02.68-.05,1H14.05c-.03-.32-.05-.66-.05-1A10,10,0,0,1,24,1Z" style="fill:#4e535e"/><path d="M24.537,15a18.587,18.587,0,0,0,7.529,1.958A9.334,9.334,0,0,0,33.19,15.05L33,15Z" style="fill:#636978"/><path d="M24.537,15H33l.19.05A9.761,9.761,0,0,0,33.95,12h-13.6A16.812,16.812,0,0,0,24.537,15Z" style="fill:#e2ff9c"/><path d="M24,1a9.977,9.977,0,0,0-7.72,3.647A14.306,14.306,0,0,0,20.349,12h13.6c.03-.32.05-.66.05-1A10,10,0,0,0,24,1Z" style="fill:#636978"/><polygon points="26 41 26 44 24 44 22 44 22 41 26 41" style="fill:#bdf052"/><polygon points="27.41 38 27 41 26 41 22 41 21 41 20.59 38 27.41 38" style="fill:#ffa1c8"/><polygon points="30 19 29.45 23 18.55 23 18 19 30 19" style="fill:#ffa1c8"/><path d="M24,31a2.006,2.006,0,0,0,2-2V28a2.015,2.015,0,0,0-2-2,2.006,2.006,0,0,0-2,2v1A2.006,2.006,0,0,0,24,31Zm5.45-8L27.41,38H20.59L18.55,23Z" style="fill:#c78ff5"/><polygon points="20.59 38 20.727 39 27.273 39 27.41 38 20.59 38" style="fill:#ff73a5"/><polygon points="30 19 18 19 18.138 20 29.862 20 30 19" style="fill:#ff73a5"/><rect x="21" y="25" width="6" height="7" rx="3" ry="3" style="fill:#b674f2"/><path d="M26,28v1a2,2,0,0,1-4,0V28a2.006,2.006,0,0,1,2-2,2.015,2.015,0,0,1,2,2Z" style="fill:#bdf052"/><path d="M24,30a2.006,2.006,0,0,1-2-2v1a2,2,0,0,0,4,0V28A2.006,2.006,0,0,1,24,30Z" style="fill:#86c42b"/><rect x="22" y="41" width="4" height="1" style="fill:#86c42b"/><path d="M20.029,20c.031,1.022.1,2.027.219,3h9.2L30,19l-.138,1Z" style="fill:#ffb9d5"/><path d="M21.1,27.259A2.994,2.994,0,0,1,27,28v1a2.992,2.992,0,0,1-4.128,2.776,12.739,12.739,0,0,0,4.67,5.254L29.45,23h-9.2A29.229,29.229,0,0,0,21.1,27.259Z" style="fill:#e0b8ff"/><path d="M29.862,20,30,19H20c0,.338.019.667.029,1Z" style="fill:#ffa1c8"/><ellipse cx="29.003" cy="5.987" rx="1.642" ry="2.286" transform="translate(4.267 22.27) rotate(-45.02)" style="fill:#f6fafd"/><ellipse cx="31" cy="10" rx="0.825" ry="1.148" transform="translate(2.014 24.859) rotate(-45.02)" style="fill:#f6fafd"/><ellipse cx="37.746" cy="20.5" rx="0.413" ry="0.574" transform="translate(-3.436 32.709) rotate(-45.02)" style="fill:#f6fafd"/><ellipse cx="13.746" cy="37.5" rx="0.413" ry="0.574" transform="translate(-22.496 20.716) rotate(-45.02)" style="fill:#f6fafd"/><ellipse cx="24.746" cy="27.5" rx="0.413" ry="0.574" transform="translate(-12.198 25.565) rotate(-45.02)" style="fill:#f6fafd"/><ellipse cx="3.746" cy="40.5" rx="0.413" ry="0.574" transform="translate(-27.55 14.522) rotate(-45.02)" style="fill:#f6fafd"/><rect x="4" y="10" width="2" height="2" style="fill:#bdf052"/><rect x="4" y="8" width="2" height="2" style="fill:#ffa1c8"/><rect x="6" y="10" width="2" height="2" style="fill:#ffa1c8"/><rect x="4" y="12" width="2" height="2" style="fill:#ffa1c8"/><rect x="2" y="10" width="2" height="2" style="fill:#ffa1c8"/><rect x="43" y="33" width="2" height="2" style="fill:#bdf052"/><rect x="43" y="31" width="2" height="2" style="fill:#ffa1c8"/><rect x="45" y="33" width="2" height="2" style="fill:#ffa1c8"/><rect x="43" y="35" width="2" height="2" style="fill:#ffa1c8"/><rect x="41" y="33" width="2" height="2" style="fill:#ffa1c8"/><path d="M37,41H34a3,3,0,0,0-3,3,2,2,0,0,1-2,2H27a1.993,1.993,0,0,1-1.722-1H26a1,1,0,0,0,1-1V42a1,1,0,0,0,.991-.865l1.773-13-1.983-.271L26.536,37H21.464L19.691,24h8.618l-.254,1.864,1.982.271.9-6.586A10.557,10.557,0,0,0,35,11,11,11,0,0,0,14.473,5.5l1.73,1A9,9,0,0,1,33,11H19v2H32.789a8.92,8.92,0,0,1-.272,1H30v2h1.542a8.518,8.518,0,0,1-1.894,2h-11.3a8.518,8.518,0,0,1-1.894-2H28V14H15.483a8.92,8.92,0,0,1-.272-1H17V11H15a9.012,9.012,0,0,1,.412-2.7L13.5,7.7A11,11,0,0,0,13,11a10.553,10.553,0,0,0,4.065,8.549l2.944,21.586A1,1,0,0,0,21,42v2a1,1,0,0,0,1,1h1.142A4,4,0,0,0,27,48h2a4,4,0,0,0,4-4,1,1,0,0,1,1-1h3a1,1,0,0,1,1,1v3h2V44A3,3,0,0,0,37,41ZM26.263,39l-.136,1H21.873l-.136-1ZM19.419,22l-.273-2h9.708l-.273,2ZM25,42v1H23V42Z"/><path d="M21,28v1a3,3,0,0,0,6,0V28a3,3,0,0,0-6,0Zm4,0v1a1,1,0,0,1-2,0V28a1,1,0,0,1,2,0Z"/><path d="M14.8,28.02l-10,2A1,1,0,0,0,4,31v7.184A2.966,2.966,0,0,0,3,38a3,3,0,1,0,3,3V34.82l8-1.6v1.964A2.966,2.966,0,0,0,13,35a3,3,0,1,0,3,3V29a1,1,0,0,0-1.2-.98ZM3,42a1,1,0,1,1,1-1A1,1,0,0,1,3,42Zm3-9.22v-.96l8-1.6v.96ZM13,39a1,1,0,1,1,1-1A1,1,0,0,1,13,39Z"/><path d="M45,15h2c0-2.8-3.514-5-8-5a1,1,0,0,0-1,1v7.184A2.966,2.966,0,0,0,37,18a3,3,0,1,0,3,3V12.043C42.992,12.306,45,13.719,45,15Zm-8,7a1,1,0,1,1,1-1A1,1,0,0,1,37,22Z"/><rect x="4" y="8" width="2" height="2"/><rect x="4" y="12" width="2" height="2"/><rect x="6" y="10" width="2" height="2"/><rect x="2" y="10" width="2" height="2"/><rect x="43" y="31" width="2" height="2"/><rect x="43" y="35" width="2" height="2"/><rect x="45" y="33" width="2" height="2"/><rect x="41" y="33" width="2" height="2"/></g></svg>