<?xml version="1.0" encoding="iso-8859-1"?>
<!-- Generator: Adobe Illustrator 19.0.0, SVG Export Plug-In . SVG Version: 6.00 Build 0)  -->
<svg xmlns="http://www.w3.org/2000/svg" xmlns:xlink="http://www.w3.org/1999/xlink" version="1.1" id="Layer_1" x="0px" y="0px" viewBox="0 0 512 512" style="enable-background:new 0 0 512 512;" xml:space="preserve">
<rect x="93.888" y="135.383" style="fill:#B8D6FF;" width="324.209" height="324.209"/>
<path style="fill:#FFFFFF;" d="M285.339,292.76c1.833-3.489,2.874-7.458,2.874-11.673c0-13.888-11.259-25.147-25.147-25.147  c-5.632,0-10.832,1.852-15.023,4.98c-4.749-12.81-17.077-21.942-31.538-21.942c-7.112,0-13.703,2.213-19.135,5.98  c-6.931-14.079-21.415-23.77-38.167-23.77c-23.484,0-42.523,19.038-42.523,42.522c0,11.236,4.366,21.447,11.483,29.049  L285.339,292.76L285.339,292.76z"/>
<g>
	<path style="fill:#A5EB78;" d="M93.893,303.908c58.945-36.986,110.577-19.264,174.344,56.742v121.012H93.893l-22.066-55.234   L93.893,303.908z"/>
	<path style="fill:#A5EB78;" d="M418.106,368.634c-61.838-67.038-164.321-33.834-236.752,90.961v22.066h258.819L418.106,368.634z"/>
</g>
<path style="opacity:0.1;enable-background:new    ;" d="M365.523,337.092c-58.364-13.315-129.749,28.738-184.17,122.502v22.066  h44.131v-22.066C266.766,388.469,317.807,347.113,365.523,337.092z"/>
<circle style="fill:#FFAC55;" cx="349.286" cy="216.452" r="34.29"/>
<circle style="fill:#5D5E70;" cx="256.004" cy="28.251" r="19.98"/>
<g>
	<polygon style="fill:#FFAC55;" points="418.106,135.382 462.237,91.25 49.762,91.25 93.893,135.382  "/>
	<polygon style="fill:#FFAC55;" points="418.106,459.594 462.237,503.725 49.762,503.725 93.893,459.594  "/>
</g>
<g>
	<polygon style="fill:#FF8A3A;" points="418.106,135.382 462.237,91.25 462.237,503.725 418.106,459.594  "/>
	<polygon style="fill:#FF8A3A;" points="93.894,135.382 49.762,91.25 49.762,503.725 93.894,459.594  "/>
</g>
<path d="M47.362,511.635c0.776,0.238,1.587,0.365,2.401,0.365H354.54c4.57,0,8.275-3.705,8.275-8.275  c0-4.57-3.705-8.275-8.275-8.275H69.739l27.582-27.582h84.033h233.325l27.582,27.582h-54.623c-4.57,0-8.275,3.705-8.275,8.275  c0,4.57,3.705,8.275,8.275,8.275c0,0,74.585,0,74.6,0c4.218,0,7.882-3.384,8.245-7.576c0.02-0.234,0.031-0.469,0.03-0.703  c0,0,0-412.456,0-412.465c0-4.515-3.764-8.28-8.278-8.28h-164.77l-20.726-35.569c4.658-5.039,7.511-11.77,7.511-19.156  C284.25,12.673,271.577,0,255.999,0s-28.251,12.673-28.251,28.251c0,7.386,2.853,14.118,7.511,19.156l-20.726,35.569H150.28  c-4.57,0-8.275,3.705-8.275,8.275s3.705,8.275,8.275,8.275c0,0,68.976,0,69.027,0c0,0,73.386,0,73.436,0H442.26l-27.582,27.582  H97.321L69.739,99.524h47.444c4.57,0,8.275-3.705,8.275-8.275s-3.705-8.275-8.275-8.275H49.762c-0.011,0-0.021,0.001-0.032,0.001  c-4.472,0-8.244,3.817-8.243,8.276c0,0,0,412.452,0,412.47C41.487,507.321,43.916,510.575,47.362,511.635z M255.999,16.549  c6.452,0,11.701,5.249,11.701,11.701s-5.249,11.701-11.701,11.701c-6.452,0-11.701-5.249-11.701-11.701  S249.547,16.549,255.999,16.549z M233.688,82.975l15.865-27.226c2.072,0.485,4.229,0.751,6.448,0.751s4.374-0.265,6.448-0.751  l15.865,27.226H233.688z M426.381,368.634V138.809l27.582-27.582v372.521l-27.582-27.582V368.634z M102.167,143.657h307.664v206.003  c-11.387-9.025-23.88-15.5-37.326-19.308c-4.399-1.246-8.971,1.31-10.216,5.706c-1.246,4.397,1.309,8.971,5.705,10.217  c15.45,4.377,29.51,13.002,41.836,25.657v79.39H196.025c0.513-0.815,1.027-1.627,1.543-2.435c0.181-0.282,0.361-0.565,0.542-0.847  c19.553-30.4,43.35-58.845,73.282-79.508c0.06-0.042,0.119-0.083,0.179-0.124c22.045-15.18,44.735-23.862,66.18-25.239  c4.561-0.292,8.021-4.227,7.727-8.788c-0.292-4.561-4.224-8.022-8.788-7.727c-22.408,1.439-45.01,9.35-66.929,23.03  c-17.971-20.784-35.052-36.921-51.622-48.649c0,0,67.097,0,67.2,0c8.922,0,11.15-13.298,11.15-19.948  c0-18.429-14.992-33.422-33.422-33.422c-3.976,0-7.848,0.687-11.49,2.021c-7.636-11.63-20.801-18.983-35.072-18.983  c-5.599,0-11.06,1.1-16.135,3.224c-9.452-13.137-24.573-21.013-41.167-21.013c-28.01,0-50.797,22.787-50.797,50.797  c0,7.372,1.568,14.501,4.572,21.058c-3.58,1.439-7.182,3.089-10.81,4.934V143.657H102.167z M188.508,284.486  c-18.896-7.566-39.751-9.51-59.599-4.806c-2.599-4.894-3.954-10.327-3.954-15.968c0-18.885,15.364-34.248,34.248-34.248  c13.148,0,24.929,7.338,30.743,19.15c1.064,2.16,3.016,3.751,5.349,4.355c2.332,0.606,4.811,0.161,6.791-1.21  c4.25-2.947,9.237-4.505,14.42-4.505c10.555,0,20.112,6.648,23.78,16.544c0.906,2.445,2.913,4.32,5.413,5.059  c2.503,0.74,5.203,0.256,7.294-1.304c2.926-2.183,6.41-3.336,10.074-3.336c9.304,0,16.872,7.568,16.872,16.872  c0,1.157-0.114,2.292-0.341,3.399h-91.089V284.486z M102.167,308.56c8.662-5.093,17.058-8.863,25.292-11.351  c0.05-0.013,0.099-0.018,0.149-0.032c7.961-2.392,15.935-3.605,23.699-3.605c10.438,0,20.779,2.252,30.468,6.07  c0.175,0.069,0.35,0.136,0.525,0.206c22.95,9.194,47.042,28.623,73.713,59.233c-28.633,21.323-55.736,52.54-79.263,92.021  c-0.043,0.073-0.088,0.143-0.132,0.216h-74.451V308.56z M58.036,111.227l27.582,27.582v165.099v152.26l-27.582,27.582  C58.036,483.749,58.036,111.227,58.036,111.227z"/>
<path d="M349.281,259.014c23.47,0,42.564-19.094,42.564-42.564s-19.094-42.564-42.564-42.564s-42.564,19.094-42.564,42.564  C306.717,239.92,325.811,259.014,349.281,259.014z M349.281,190.434c14.345,0,26.015,11.67,26.015,26.015  c0,14.345-11.67,26.015-26.015,26.015s-26.015-11.67-26.015-26.015C323.266,202.105,334.937,190.434,349.281,190.434z"/>
<g>
</g>
<g>
</g>
<g>
</g>
<g>
</g>
<g>
</g>
<g>
</g>
<g>
</g>
<g>
</g>
<g>
</g>
<g>
</g>
<g>
</g>
<g>
</g>
<g>
</g>
<g>
</g>
<g>
</g>
</svg>
