<svg xmlns="http://www.w3.org/2000/svg" viewBox="0 0 48 48"><title>05-polaroid</title><g id="_05-polaroid" data-name="05-polaroid"><polygon points="27 31 29 34 26 34 24 37 22 34 19 34 21 31 20.5 29 27.5 29 27 31" style="fill:#fffd78"/><polygon points="41 33 41 47 7 47 7 33 7 29 11 29 11 43 37 43 37 29 41 29 41 33" style="fill:#f2f5f9"/><polygon points="37 29 37 43 11 43 11 29 20.5 29 21 31 19 34 22 34 24 37 26 34 29 34 27 31 27.5 29 37 29" style="fill:#e0b8ff"/><rect x="41" y="29" width="6" height="4" style="fill:#8f4cd6"/><rect x="1" y="29" width="6" height="4" style="fill:#8f4cd6"/><polygon points="47 25 47 29 41 29 37 29 27.5 29 20.5 29 11 29 7 29 1 29 1 25 4 25 44 25 47 25" style="fill:#e0b8ff"/><rect x="7" y="18" width="6" height="4" style="fill:#c78ff5"/><rect x="35" y="4" width="6" height="4" style="fill:#ffa426"/><path d="M7,22h6V18H7ZM35,4V8h6V4Zm9-1V25H4V3A2.006,2.006,0,0,1,6,1H42A2.006,2.006,0,0,1,44,3ZM32,13a8,8,0,1,0-8,8A8,8,0,0,0,32,13Z" style="fill:#ffa1c8"/><path d="M42,1H6A2.006,2.006,0,0,0,4,3V23H5V3A1,1,0,0,1,6,2H42a1,1,0,0,1,1,1V23h1V3A2.006,2.006,0,0,0,42,1Z" style="fill:#ff73a5"/><rect x="4" y="23" width="1" height="2" style="fill:#ff5f96"/><rect x="43" y="23" width="1" height="2" style="fill:#ff5f96"/><rect x="5" y="23" width="38" height="2" style="fill:#ff73a5"/><rect x="8" y="19" width="4" height="2" style="fill:#e0b8ff"/><rect x="36" y="5" width="4" height="2" style="fill:#fff566"/><circle cx="24" cy="13" r="9" style="fill:#ffd7d1"/><path d="M24,5a8,8,0,1,1-8,8A8,8,0,0,1,24,5Z" style="fill:#afb4c8"/><circle cx="24" cy="13" r="7" style="fill:#7e8596"/><circle cx="24" cy="13" r="6" style="fill:#64e1dc"/><circle cx="24" cy="13" r="5" style="fill:#96ebe6"/><path d="M32,13a8,8,0,0,0-15.983-.342,6.067,6.067,0,0,1,1.185-1.3A7,7,0,1,1,25.644,19.8a6.067,6.067,0,0,1-1.3,1.185A7.992,7.992,0,0,0,32,13Z" style="fill:#bec3d2"/><path d="M24,7a6,6,0,0,1,2.466,11.466,6,6,0,0,1-.822,1.332A7,7,0,1,0,17.2,11.356a6,6,0,0,1,1.332-.822A6,6,0,0,1,24,7Z" style="fill:#9196aa"/><path d="M30,13a6,6,0,0,0-11.466-2.466,5.982,5.982,0,0,1,1.408-.435A4.991,4.991,0,1,1,26.9,17.058a5.982,5.982,0,0,1-.435,1.408A6,6,0,0,0,30,13Z" style="fill:#00c8c8"/><path d="M27,16a5.947,5.947,0,0,1-.1,1.058A4.991,4.991,0,1,0,19.942,10.1,5.975,5.975,0,0,1,27,16Z" style="fill:#64e1dc"/><circle cx="24" cy="11" r="3" style="fill:#1d747d"/><circle cx="24" cy="16" r="1" style="fill:#1d747d"/><ellipse cx="26.003" cy="9.987" rx="1.642" ry="2.286" transform="translate(0.558 21.32) rotate(-45.02)" style="fill:#f6fafd"/><ellipse cx="22" cy="14" rx="0.825" ry="1.148" transform="translate(-3.454 19.666) rotate(-45.02)" style="fill:#f6fafd"/><ellipse cx="24.746" cy="12.5" rx="0.413" ry="0.574" transform="translate(-1.588 21.168) rotate(-45.02)" style="fill:#f6fafd"/><path d="M22.5,23.5a.5.5,0,0,0,.5.5H38a.5.5,0,0,0,0-1H23A.5.5,0,0,0,22.5,23.5Z" style="fill:#ff8fb8"/><path d="M39.5,23.5a.5.5,0,0,0,.5.5h1a.5.5,0,0,0,0-1H40A.5.5,0,0,0,39.5,23.5Z" style="fill:#ff8fb8"/><rect x="1" y="27" width="46" height="2" style="fill:#d2a0f5"/><rect x="1" y="25" width="46" height="1" style="fill:#ebccff"/><polygon points="44 29 41 29 41 33 44 33 44 31 46 31 46 29 44 29" style="fill:#613394"/><rect x="46" y="29" width="1" height="4" style="fill:#d2a0f5"/><polygon points="4 29 7 29 7 33 4 33 4 31 2 31 2 29 4 29" style="fill:#613394"/><rect x="1" y="29" width="1" height="4" style="fill:#d2a0f5"/><polygon points="11 29 11 43 37 43 37 29 41 29 41 30 38 30 38 44 10 44 10 30 7 30 7 29 11 29" style="fill:#cdd2e1"/><rect x="7" y="30" width="3" height="3" style="fill:#dce1eb"/><rect x="38" y="30" width="3" height="3" style="fill:#dce1eb"/><polygon points="19.667 33 28.333 33 27 31 27.5 29 20.5 29 21 31 19.667 33" style="fill:#f2d813"/><polygon points="28.333 33 37 33 37 29 27.5 29 27 31 28.333 33" style="fill:#c78ff5"/><polygon points="21 31 20.5 29 11 29 11 33 19.667 33 21 31" style="fill:#c78ff5"/><rect x="12" y="43" width="6" height="1" rx="0.5" ry="0.5" style="fill:#afb4c8"/><path d="M18.5,43.5a.5.5,0,0,0,.5.5h1a.5.5,0,0,0,0-1H19A.5.5,0,0,0,18.5,43.5Z" style="fill:#afb4c8"/><path d="M15.116,14.375a8.995,8.995,0,1,1,13.27,6.481A56.109,56.109,0,0,0,43,22.984V3a1,1,0,0,0-1-1H7.148C7.793,6.664,10.67,10.926,15.116,14.375ZM35,4h6V8H35Z" style="fill:#ffb9d5"/><path d="M42,1H7.041c.023.336.061.668.107,1H42a1,1,0,0,1,1,1V22.984c.333.006.665.016,1,.016V3A2.006,2.006,0,0,0,42,1Z" style="fill:#ffa1c8"/><ellipse cx="40.003" cy="10.987" rx="1.642" ry="2.286" transform="translate(3.955 31.516) rotate(-45.02)" style="fill:#f6fafd"/><ellipse cx="41" cy="15" rx="0.825" ry="1.148" transform="translate(1.408 33.398) rotate(-45.02)" style="fill:#f6fafd"/><ellipse cx="35" cy="39" rx="0.825" ry="1.148" transform="translate(-17.327 36.19) rotate(-45.02)" style="fill:#f6fafd"/><ellipse cx="35.746" cy="41.5" rx="0.413" ry="0.574" transform="translate(-18.877 37.45) rotate(-45.02)" style="fill:#f6fafd"/><path d="M45,24V22H43v2H41v2h4a1,1,0,0,1,1,1v1H2V27a1,1,0,0,1,1-1H39V24H5V3A1,1,0,0,1,6,2H42a1,1,0,0,1,1,1V20h2V3a3,3,0,0,0-3-3H6A3,3,0,0,0,3,3V24a3,3,0,0,0-3,3v6a1,1,0,0,0,1,1H6v8H8V30h2V43a1,1,0,0,0,1,1H37a1,1,0,0,0,1-1V40H36v2H12V30h7.72l.2.813-1.755,2.632A1,1,0,0,0,19,35h2.465l1.7,2.555a1,1,0,0,0,1.664,0L26.535,35H29a1,1,0,0,0,.832-1.555l-1.755-2.632.2-.813H36v4h2V30h2V46H8V44H6v3a1,1,0,0,0,1,1H41a1,1,0,0,0,1-1V34h5a1,1,0,0,0,1-1V27A3,3,0,0,0,45,24ZM6,32H2V30H6Zm20.168-.445L27.132,33H26a1,1,0,0,0-.832.445L24,35.2l-1.168-1.752A1,1,0,0,0,22,33H20.868l.964-1.445a1,1,0,0,0,.138-.8L21.78,30h4.44l-.19.757A1,1,0,0,0,26.168,31.555ZM42,32V30h4v2Z"/><path d="M15,13a9,9,0,1,0,9-9A9.01,9.01,0,0,0,15,13Zm16,0a7,7,0,1,1-7-7A7.008,7.008,0,0,1,31,13Z"/><path d="M18,13a6,6,0,1,0,6-6A6.006,6.006,0,0,0,18,13Zm10,0a4,4,0,1,1-4-4A4,4,0,0,1,28,13Z"/><rect x="36" y="36" width="2" height="2"/><path d="M35,3a1,1,0,0,0-1,1V8a1,1,0,0,0,1,1h6a1,1,0,0,0,1-1V4a1,1,0,0,0-1-1Zm5,4H36V5h4Z"/><path d="M6,18v4a1,1,0,0,0,1,1h6a1,1,0,0,0,1-1V18a1,1,0,0,0-1-1H7A1,1,0,0,0,6,18Zm2,1h4v2H8Z"/><rect x="7" y="14" width="6" height="2"/></g></svg>