<?xml version="1.0" encoding="iso-8859-1"?>
<!-- Generator: Adobe Illustrator 19.0.0, SVG Export Plug-In . SVG Version: 6.00 Build 0)  -->
<svg xmlns="http://www.w3.org/2000/svg" xmlns:xlink="http://www.w3.org/1999/xlink" version="1.1" id="Layer_1" x="0px" y="0px" viewBox="0 0 511.999 511.999" style="enable-background:new 0 0 511.999 511.999;" xml:space="preserve">
<g>
	<path style="fill:#735642;" d="M248.669,124.515c-24.529-7.932-45.536-0.313-69.859,8.509   c-17.431,6.323-35.411,12.845-54.899,12.845c-1.576,0-3.162-0.043-4.758-0.132c-25.226-1.404-47.308-14.03-67.508-38.598   c-8.354-10.162-6.89-25.171,3.271-33.525c10.161-8.355,25.171-6.891,33.525,3.271c14.841,18.049,25.624,20.858,33.361,21.289   c11.6,0.652,25.118-4.256,40.766-9.931c27.039-9.808,60.688-22.013,100.761-9.052L248.669,124.515z"/>
	<path style="fill:#735642;" d="M263.328,124.515c24.529-7.932,45.536-0.313,69.859,8.509c17.431,6.323,35.411,12.845,54.899,12.845   c1.576,0,3.162-0.043,4.758-0.132c25.226-1.404,47.308-14.03,67.508-38.598c8.354-10.162,6.89-25.171-3.271-33.525   c-10.161-8.355-25.171-6.891-33.525,3.271c-14.841,18.049-25.624,20.858-33.361,21.289c-11.6,0.652-25.118-4.256-40.766-9.931   c-27.039-9.808-60.688-22.013-100.761-9.052L263.328,124.515z"/>
</g>
<path style="fill:#8C6950;" d="M232.18,475.042V32.039c0-13.155,10.664-23.819,23.819-23.819s23.819,10.664,23.819,23.819v443.003  L232.18,475.042L232.18,475.042z"/>
<path style="opacity:0.1;enable-background:new    ;" d="M266.959,10.895c-3.282-1.704-7.007-2.673-10.961-2.673  c-13.154,0-23.819,10.664-23.819,23.819v443.003h21.921V32.039C254.101,22.839,259.322,14.862,266.959,10.895z"/>
<path style="opacity:0.1;enable-background:new    ;" d="M88.441,76.885c-8.354-10.162-23.365-11.625-33.525-3.271  c-10.161,8.355-11.625,23.364-3.271,33.525c11.104,13.505,22.778,23.392,35.23,29.8c15.902-8.058,28.385-21.915,34.624-38.786  C113.783,97.666,103.09,94.701,88.441,76.885z"/>
<circle style="fill:#8C6950;" cx="54.911" cy="73.612" r="38.078"/>
<path style="opacity:0.1;enable-background:new    ;" d="M457.081,73.614c-10.161-8.355-25.171-6.891-33.525,3.271  c-14.649,17.815-25.343,20.781-33.057,21.269c6.238,16.872,18.722,30.728,34.624,38.786c12.451-6.408,24.125-16.296,35.23-29.8  C468.706,96.979,467.242,81.969,457.081,73.614z"/>
<circle style="fill:#8C6950;" cx="457.079" cy="73.612" r="38.078"/>
<path style="fill:#735642;" d="M302.655,452.92h-93.313c-28.089,0-50.86,22.771-50.86,50.86l0,0h195.031l0,0  C353.514,475.691,330.743,452.92,302.655,452.92z"/>
<path style="opacity:0.1;enable-background:new    ;" d="M242.224,452.92h-32.882c-28.089,0-50.858,22.77-50.858,50.858h32.882  C191.365,475.691,214.135,452.92,242.224,452.92z"/>
<path d="M8.616,73.614c0,24.484,19.105,44.577,43.189,46.184c16.334,17.591,33.823,28.194,53.375,32.343  c4.442,0.943,8.806-1.895,9.748-6.335c0.942-4.441-1.895-8.806-6.335-9.748c-13.017-2.762-25.085-9.152-36.598-19.422  c10.076-4.015,18.427-11.46,23.582-20.898c10.832,8.692,19.629,10.303,25.763,10.644c13.272,0.746,27.513-4.419,44.03-10.412  c17.341-6.29,36.747-13.33,58.59-14.099v31.192c-16.324,0.761-31.756,6.358-47.953,12.233c-12.15,4.407-24.713,8.965-37.58,11.091  c-4.48,0.741-7.51,4.973-6.769,9.451c0.665,4.026,4.15,6.881,8.101,6.881c0.445,0,0.897-0.036,1.35-0.112  c14.364-2.375,27.653-7.195,40.504-11.856c15.27-5.54,28.791-10.426,42.346-11.211v315.158h-14.617  c-32.576,0-59.079,26.503-59.079,59.08c0,4.54,3.681,8.22,8.22,8.22h195.031c4.54,0,8.22-3.681,8.22-8.22  c0-32.576-26.503-59.079-59.079-59.079h-14.617v-60.801c0-4.54-3.681-8.22-8.22-8.22s-8.22,3.681-8.22,8.22v60.801h-31.196V121.342  V73.661V32.039c0-8.601,6.997-15.598,15.598-15.598c8.601,0,15.598,6.997,15.598,15.598v41.622v47.681v229.675  c0,4.54,3.681,8.22,8.22,8.22s8.22-3.681,8.22-8.22V129.543c13.56,0.785,27.074,5.67,42.345,11.209  c20.197,7.326,41.123,14.412,62.917,13.192c24.954-1.389,46.87-12.572,66.903-34.148c24.078-1.612,43.177-21.703,43.177-46.183  c0-25.53-20.769-46.299-46.299-46.299c-26.835,0-48.849,24.49-46.041,51.176c-10.922,10.888-18.103,11.296-21.305,11.474  c-5.294,0.298-11.671-0.819-20.673-3.62c-4.334-1.347-8.943,1.073-10.292,5.407c-1.349,4.335,1.072,8.943,5.407,10.292  c10.964,3.411,19.126,4.748,26.475,4.337c6.136-0.342,14.935-1.952,25.767-10.644c5.154,9.435,13.501,16.879,23.574,20.894  c-14.68,13.074-30.358,19.937-47.608,20.898c-19.559,1.088-38.303-5.669-56.398-12.233c-16.195-5.874-31.627-11.471-47.952-12.233  V81.876c16.647,0.604,31.584,4.842,43.139,8.662c4.313,1.426,8.96-0.914,10.386-5.224c1.425-4.311-0.914-8.96-5.225-10.385  c-12.78-4.225-29.392-8.912-48.3-9.502V32.039C288.037,14.373,273.665,0,255.998,0s-32.039,14.373-32.039,32.039v33.409  c-24.741,0.777-46.426,8.619-64.226,15.076c-14.789,5.365-27.555,10.002-37.476,9.44c-3.199-0.178-10.38-0.585-21.302-11.474  c0.169-1.604,0.259-3.23,0.259-4.877c0-25.53-20.77-46.299-46.3-46.299S8.616,48.084,8.616,73.614z M430.407,87.006  c-0.043-0.085-0.089-0.169-0.13-0.254c-9.456-19.181,4.655-42.356,25.915-42.982c0.297-0.009,0.593-0.013,0.89-0.013  c16.464,0,29.858,13.395,29.858,29.858c0,16.464-13.394,29.859-29.858,29.859c-0.147,0-0.292-0.009-0.438-0.011  c-0.013,0-0.025-0.003-0.037-0.003C445.37,103.282,435.317,96.699,430.407,87.006z M232.18,461.14h47.637h22.838  c20.7,0,38.002,14.826,41.843,34.419H167.499c3.842-19.592,21.143-34.418,41.843-34.418h22.838V461.14z M84.699,73.615  c0.357,15.964-13.536,29.597-29.308,29.844c-0.013,0-0.025,0.003-0.037,0.003c-0.147,0.002-0.292,0.011-0.438,0.011  c-16.464,0-29.858-13.394-29.858-29.859c0-16.463,13.394-29.858,29.858-29.858C70.873,43.756,84.351,58.084,84.699,73.615z"/>
<g>
</g>
<g>
</g>
<g>
</g>
<g>
</g>
<g>
</g>
<g>
</g>
<g>
</g>
<g>
</g>
<g>
</g>
<g>
</g>
<g>
</g>
<g>
</g>
<g>
</g>
<g>
</g>
<g>
</g>
</svg>
