<?xml version="1.0" encoding="iso-8859-1"?>
<!-- Generator: Adobe Illustrator 19.0.0, SVG Export Plug-In . SVG Version: 6.00 Build 0)  -->
<svg xmlns="http://www.w3.org/2000/svg" xmlns:xlink="http://www.w3.org/1999/xlink" version="1.1" id="Layer_1" x="0px" y="0px" viewBox="0 0 511.995 511.995" style="enable-background:new 0 0 511.995 511.995;" xml:space="preserve">
<g>
	<rect x="21.74" y="366" style="fill:#4A4B59;" width="42.023" height="126.738"/>
	<rect x="448.234" y="366" style="fill:#4A4B59;" width="42.023" height="126.738"/>
</g>
<polygon style="opacity:0.1;enable-background:new    ;" points="448.236,428.222 490.26,416.444 490.26,365.995 448.236,365.995   "/>
<g>
	<polygon style="fill:#5D5F70;" points="379.667,53.921 342.131,91.456 342.131,351.942 379.667,411.445 503.334,376.782    503.334,19.258  "/>
	<polygon style="fill:#5D5F70;" points="255.999,19.258 132.333,53.921 94.798,91.456 94.798,351.942 132.333,411.445    255.999,376.782 288.223,331.04 288.223,61.061  "/>
</g>
<polygon style="opacity:0.1;enable-background:new    ;" points="21.74,416.444 63.764,428.222 63.764,365.995 21.74,365.995 "/>
<g>
	<polygon style="fill:#4A4B59;" points="132.333,53.921 8.666,19.258 8.666,376.782 132.333,411.445  "/>
	<polygon style="fill:#4A4B59;" points="379.667,53.921 255.999,19.258 255.999,376.782 379.667,411.445  "/>
</g>
<path style="fill:#FF614D;" d="M132.333,88.583L94.798,119.15v232.79l37.535,23.504l89.004-24.947V64.972  C221.337,64.972,135.481,88.583,132.333,88.583z"/>
<path style="fill:#FF462E;" d="M43.328,64.972v285.526l89.004,24.947V88.583C129.185,88.583,43.328,64.972,43.328,64.972z"/>
<path style="fill:#FF614D;" d="M379.667,88.583l-37.535,30.567v232.79l37.535,23.504l89.004-24.947V64.972  C468.672,64.972,382.815,88.583,379.667,88.583z"/>
<path style="fill:#FF462E;" d="M290.662,64.972v285.526l89.004,24.947V88.583C376.519,88.583,290.662,64.972,290.662,64.972z"/>
<path d="M72.43,492.736v-89.083l57.564,16.134c0.207,0.058,0.418,0.088,0.626,0.131c0.14,0.029,0.277,0.066,0.419,0.087  c0.43,0.065,0.862,0.105,1.292,0.105l0,0l0,0c0.431,0,0.862-0.039,1.292-0.105c0.141-0.021,0.278-0.059,0.418-0.087  c0.209-0.043,0.421-0.073,0.627-0.131l121.328-34.007l121.328,34.007c0.207,0.058,0.418,0.088,0.627,0.131  c0.14,0.029,0.277,0.066,0.419,0.087c0.43,0.065,0.862,0.105,1.292,0.105l0,0l0,0c0.431,0,0.862-0.039,1.292-0.105  c0.141-0.021,0.278-0.059,0.418-0.087c0.209-0.043,0.421-0.073,0.627-0.131l57.564-16.134v89.083c0,4.786,3.88,8.666,8.666,8.666  h42.024c4.786,0,8.666-3.88,8.666-8.666v-105.72l6.748-1.891c3.74-1.049,6.327-4.459,6.327-8.344V19.258  c0-2.712-1.27-5.266-3.429-6.905c-2.159-1.638-4.961-2.171-7.575-1.44L379.667,44.921L258.339,10.914  c-0.117-0.032-0.235-0.049-0.351-0.076c-0.169-0.039-0.335-0.081-0.506-0.11c-0.159-0.028-0.32-0.044-0.481-0.062  c-0.169-0.02-0.337-0.04-0.507-0.051c-0.163-0.009-0.326-0.008-0.489-0.008c-0.168,0-0.335-0.001-0.503,0.008  c-0.168,0.009-0.333,0.03-0.498,0.05c-0.163,0.018-0.325,0.036-0.488,0.064c-0.17,0.03-0.337,0.07-0.506,0.111  c-0.117,0.028-0.233,0.044-0.349,0.076L132.333,44.921L11.004,10.914c-2.611-0.731-5.414-0.2-7.575,1.44  C1.27,13.992,0,16.546,0,19.258v54.316c0,4.786,3.88,8.666,8.666,8.666s8.666-3.88,8.666-8.666V30.686l106.336,29.805v17.157  c-17.43-4.485-53.786-14.361-78.041-21.032c-2.609-0.718-5.4-0.176-7.551,1.463c-2.151,1.641-3.413,4.19-3.413,6.893v285.526  c0,3.886,2.586,7.295,6.327,8.344l82.677,23.173v17.999L17.331,370.21V107.963c0-4.786-3.88-8.666-8.666-8.666S0,103.177,0,107.963  v268.819c0,3.886,2.586,7.295,6.327,8.344l6.748,1.891v105.72c0,4.786,3.88,8.666,8.666,8.666h42.024  C68.55,501.402,72.43,497.522,72.43,492.736z M481.594,484.071h-24.692v-85.275l21.958-6.155l2.736-0.767v92.197H481.594z   M388.333,382.016l82.677-23.173c3.741-1.049,6.327-4.459,6.327-8.344V144.761c0-4.786-3.88-8.666-8.666-8.666  c-4.786,0-8.666,3.88-8.666,8.666v199.167l-71.673,20.089V95.493c9.206-2.254,28.806-7.4,71.673-19.153v34.204  c0,4.786,3.88,8.666,8.666,8.666c4.786,0,8.666-3.88,8.666-8.666v-45.57c0-2.704-1.262-5.253-3.413-6.892  c-2.15-1.638-4.942-2.181-7.551-1.463c-24.256,6.67-60.611,16.547-78.041,21.031V60.492l106.336-29.805V370.21l-106.336,29.805  V382.016z M371.002,364.017l-71.673-20.089V76.339c42.867,11.753,62.467,16.899,71.673,19.153V364.017z M264.665,30.686  l106.336,29.805v17.157c-17.429-4.485-53.786-14.361-78.04-21.032c-2.608-0.718-5.4-0.176-7.551,1.463  c-2.15,1.64-3.413,4.188-3.413,6.892v285.526c0,3.886,2.586,7.295,6.327,8.344l82.677,23.173v17.999l-106.336-29.805V30.686  L264.665,30.686z M140.998,382.016l82.677-23.173c3.741-1.049,6.327-4.459,6.327-8.344v-32.678c0-4.786-3.88-8.666-8.666-8.666  c-4.786,0-8.666,3.88-8.666,8.666v26.107l-71.673,20.089V95.493c9.206-2.254,28.806-7.4,71.673-19.153v206.82  c0,4.786,3.88,8.666,8.666,8.666c4.786,0,8.666-3.88,8.666-8.666V64.972c0-2.704-1.262-5.253-3.413-6.892  c-2.151-1.638-4.943-2.181-7.551-1.463c-24.256,6.67-60.611,16.547-78.041,21.031V60.492l106.336-29.805V370.21l-106.336,29.805  V382.016z M51.994,343.928V76.339c42.867,11.753,62.467,16.899,71.673,19.153v268.524L51.994,343.928z M55.098,484.071H30.406  v-92.196l24.692,6.921V484.071z"/>
<g>
</g>
<g>
</g>
<g>
</g>
<g>
</g>
<g>
</g>
<g>
</g>
<g>
</g>
<g>
</g>
<g>
</g>
<g>
</g>
<g>
</g>
<g>
</g>
<g>
</g>
<g>
</g>
<g>
</g>
</svg>
