<?xml version="1.0" encoding="iso-8859-1"?>
<!-- Generator: Adobe Illustrator 19.0.0, SVG Export Plug-In . SVG Version: 6.00 Build 0)  -->
<svg xmlns="http://www.w3.org/2000/svg" xmlns:xlink="http://www.w3.org/1999/xlink" version="1.1" id="Layer_1" x="0px" y="0px" viewBox="0 0 512 512" style="enable-background:new 0 0 512 512;" xml:space="preserve">
<path id="SVGCleanerId_0" style="fill:#A39C8E;" d="M147.609,500.212c11.143,0,22.146-5.058,29.352-14.653l248.886-331.447  c12.161-16.196,8.89-39.182-7.305-51.343c-16.195-12.162-39.182-8.89-51.342,7.305L118.315,441.52  c-12.161,16.195-8.89,39.182,7.305,51.342C132.218,497.817,139.948,500.212,147.609,500.212z"/>
<g>
	<path id="SVGCleanerId_0_1_" style="fill:#A39C8E;" d="M147.609,500.212c11.143,0,22.146-5.058,29.352-14.653l248.886-331.447   c12.161-16.196,8.89-39.182-7.305-51.343c-16.195-12.162-39.182-8.89-51.342,7.305L118.315,441.52   c-12.161,16.195-8.89,39.182,7.305,51.342C132.218,497.817,139.948,500.212,147.609,500.212z"/>
</g>
<path style="fill:#FF614D;" d="M465.427,90.084c0,0-50.132-78.294-209.427-78.294S46.573,90.084,46.573,90.084v37.406h418.853  L465.427,90.084L465.427,90.084z"/>
<polygon style="opacity:0.1;enable-background:new    ;" points="233.071,410.835 324.787,288.696 278.929,227.626 187.214,349.765   "/>
<path style="fill:#BDB5A5;" d="M364.391,500.212c-11.143,0-22.146-5.058-29.352-14.653L86.153,154.111  c-12.161-16.196-8.89-39.182,7.305-51.343c16.195-12.162,39.182-8.89,51.342,7.305l248.885,331.449  c12.161,16.195,8.89,39.182-7.305,51.342C379.782,497.817,372.052,500.212,364.391,500.212z"/>
<path style="opacity:0.1;enable-background:new    ;" d="M418.543,102.768c-16.195-12.162-39.182-8.89-51.342,7.305l-68.703,91.494  h91.716l35.635-47.456C438.008,137.915,434.739,114.928,418.543,102.768z"/>
<path style="opacity:0.1;enable-background:new    ;" d="M144.799,110.073c-12.161-16.195-35.148-19.467-51.342-7.305  c-16.196,12.161-19.466,35.147-7.305,51.343l35.635,47.456h91.716L144.799,110.073z"/>
<path style="fill:#DEDAD2;" d="M465.427,90.084H46.573c-20.659,0-37.406,16.747-37.406,37.406l0,0  c0,20.659,16.747,37.406,37.406,37.406h418.853c20.659,0,37.406-16.747,37.406-37.406l0,0  C502.832,106.831,486.085,90.084,465.427,90.084z"/>
<circle cx="256.006" cy="318.125" r="13.327"/>
<path d="M470.254,81.25c-5.576-7.116-19.542-22.679-45.069-38.079C394.586,24.711,340.395,2.705,256,2.705  c-36.325,0-70.088,4.05-100.349,12.036c-3.184,0.841-5.653,3.344-6.499,6.527s0.099,6.596,2.446,8.907  c2.58,2.544,6.279,3.233,9.471,2.1C189.616,24.82,221.55,21.04,256,21.04c79.407,0,130.065,20.203,158.58,37.15  c13.623,8.097,23.62,16.239,30.541,22.809h-59.619c-5.064,0-9.168,4.105-9.168,9.168c0,5.063,4.103,9.168,9.168,9.168h79.926  c15.57,0,28.238,12.668,28.238,28.24s-12.667,28.24-28.238,28.24H46.575c-15.571-0.001-28.24-12.668-28.24-28.24  s12.668-28.24,28.24-28.24h302.257c5.064,0,9.168-4.105,9.168-9.168c0-5.063-4.103-9.168-9.168-9.168H66.852  c0.922-0.875,1.897-1.777,2.929-2.703c9.939-8.919,27.234-21.896,53.186-33.058c4.651-2.001,6.8-7.393,4.799-12.045  c-2.001-4.65-7.391-6.8-12.045-4.799c-44.465,19.127-66.59,43.412-73.976,52.854C18.324,83.674,0,103.523,0,127.574  c0,25.681,20.893,46.575,46.575,46.575h43.098L198.68,319.316c0,0-87.638,116.709-87.694,116.784  c-15.012,19.991-10.813,49.203,9.13,64.178c19.997,15.015,49.206,10.81,64.176-9.131L256,395.652c0,0,71.647,95.416,71.707,95.495  c14.944,19.902,44.295,24.062,64.18,9.131c19.98-15.002,24.129-44.202,9.128-64.178l-87.694-116.784l34.612-46.093  c3.04-4.048,2.222-9.796-1.825-12.836c-4.051-3.04-9.797-2.223-12.836,1.826l-31.414,41.834l-34.394-45.802l63.15-84.098h68.787  l-43.916,58.484c-3.04,4.048-2.222,9.796,1.825,12.836c4.05,3.04,9.795,2.222,12.836-1.826l52.183-69.493h43.098  c25.681,0,46.573-20.893,46.573-46.575C512,103.522,493.675,83.673,470.254,81.25z M169.628,480.137  c-9.001,11.987-26.527,14.471-38.504,5.478c-11.954-8.976-14.441-26.571-5.48-38.506l84.498-112.527l34.393,45.802  C244.536,380.385,169.701,480.042,169.628,480.137z M386.354,447.11c8.985,11.967,6.456,29.545-5.477,38.506  c-11.989,9.003-29.54,6.465-38.507-5.477L112.6,174.147h68.786c0,0,67.281,89.601,67.282,89.602l12.727,16.948  C261.395,280.699,386.227,446.94,386.354,447.11z M256,242.978l-51.685-68.831h103.371L256,242.978z"/>
<g>
</g>
<g>
</g>
<g>
</g>
<g>
</g>
<g>
</g>
<g>
</g>
<g>
</g>
<g>
</g>
<g>
</g>
<g>
</g>
<g>
</g>
<g>
</g>
<g>
</g>
<g>
</g>
<g>
</g>
</svg>
